version 1
nodes
0 "knife_a" -1
end
skeleton
time 0
0  -0.007772 -14.991283 0.611137  1.570796 1.570796 0.000000
end
triangles
sword03.jpg
0  0.452000 -91.572830 -1.143000  0.000000 -0.641771 -0.766896  0.404043 0.627061
0  0.292000 -99.340141 5.357000  0.000000 -0.641771 -0.766896  0.399385 0.730227
0  -0.508000 -91.572830 -1.143000  0.000000 -0.641771 -0.766896  0.390068 0.626746
sword03.jpg
0  -0.644000 -11.166861 -2.018000  0.000000 1.000000 0.000000  0.572615 0.731872
0  -1.148000 -11.166861 1.607000  0.000000 1.000000 0.000000  0.572615 0.766441
0  0.588000 -11.166861 -2.018000  0.000000 1.000000 0.000000  0.555084 0.728063
sword03.jpg
0  0.292000 -99.340141 5.357000  0.989588 0.008652 0.143672  0.337335 0.959836
0  -0.028000 -79.344200 6.357000  0.989588 0.008652 0.143672  0.352583 0.744097
0  -0.028000 -102.178200 7.732001  0.989588 0.008652 0.143672  0.359302 0.991026
sword03.jpg
0  0.452000 -91.572830 -1.143000  0.999577 -0.027785 -0.008598  0.277498 0.875171
0  0.836000 -79.344200 3.982001  0.999577 -0.027785 -0.008598  0.327124 0.743759
0  0.292000 -99.340141 5.357000  0.999577 -0.027785 -0.008598  0.337335 0.959836
sword03.jpg
0  0.212000 -83.208046 -8.143001  0.987287 -0.084390 -0.134694  0.211334 0.784527
0  1.412000 -79.344200 -1.768000  0.987287 -0.084390 -0.134694  0.273117 0.742838
0  0.452000 -91.572830 -1.143000  0.987287 -0.084390 -0.134694  0.277498 0.875171
sword03.jpg
0  -0.028000 -80.967468 -10.018000  0.944939 -0.144495 -0.293619  0.193113 0.760042
0  0.764000 -79.344200 -8.268000  0.944939 -0.144495 -0.293619  0.212566 0.742083
0  0.212000 -83.208046 -8.143001  0.944939 -0.144495 -0.293619  0.211334 0.784527
sword03.jpg
0  -0.028000 -80.967468 -10.018000  -0.898405 0.033718 -0.437872  0.008974 0.239958
0  -0.820000 -79.344200 -8.268000  -0.898405 0.033718 -0.437872  0.028428 0.257917
0  -0.028000 -79.344200 -9.893000  -0.898405 0.033718 -0.437872  0.009501 0.257725
sword03.jpg
0  -0.268000 -83.208046 -8.143001  -0.984717 -0.143855 -0.098169  0.027195 0.215473
0  -1.468000 -79.344200 -1.768000  -0.984717 -0.143855 -0.098169  0.088979 0.257162
0  -0.820000 -79.344200 -8.268000  -0.984717 -0.143855 -0.098169  0.028428 0.257917
sword03.jpg
0  -0.508000 -91.572830 -1.143000  -0.992378 -0.072825 0.099410  0.093360 0.124829
0  -0.892000 -79.344200 3.982001  -0.992378 -0.072825 0.099410  0.142986 0.256241
0  -1.468000 -79.344200 -1.768000  -0.992378 -0.072825 0.099410  0.088979 0.257162
sword03.jpg
0  -0.348000 -99.340141 5.357000  -0.939745 -0.002058 0.341870  0.153196 0.040164
0  -0.028000 -79.344200 6.357000  -0.939745 -0.002058 0.341870  0.168445 0.255903
0  -0.892000 -79.344200 3.982001  -0.939745 -0.002058 0.341870  0.142986 0.256241
sword03.jpg
0  0.836000 -79.344200 3.982001  0.939742 0.003159 0.341869  0.327124 0.743759
0  -0.028000 -52.289700 6.106999  0.939742 0.003159 0.341869  0.351627 0.453242
0  -0.028000 -79.344200 6.357000  0.939742 0.003159 0.341869  0.352583 0.744097
sword03.jpg
0  0.836000 -79.344200 3.982001  0.992133 0.002917 0.125153  0.327124 0.743759
0  1.332000 -52.289700 -0.580500  0.992133 0.002917 0.125153  0.285517 0.453019
0  0.788000 -52.289700 3.732000  0.992133 0.002917 0.125153  0.326495 0.453160
sword03.jpg
0  1.412000 -79.344200 -1.768000  0.992739 0.008203 -0.120011  0.273117 0.742838
0  0.720000 -52.289700 -5.643000  0.992739 0.008203 -0.120011  0.237395 0.452791
0  1.332000 -52.289700 -0.580500  0.992739 0.008203 -0.120011  0.285517 0.453019
sword03.jpg
0  0.764000 -79.344200 -8.268000  0.907582 0.042010 -0.417767  0.212566 0.742083
0  -0.028000 -52.289700 -7.268000  0.907582 0.042010 -0.417767  0.218643 0.452430
0  0.720000 -52.289700 -5.643000  0.907582 0.042010 -0.417767  0.237395 0.452791
sword03.jpg
0  -0.820000 -79.344200 -8.268000  -0.898106 0.042471 -0.437723  0.028428 0.257917
0  -0.028000 -52.289700 -7.268000  -0.898106 0.042471 -0.437723  0.034505 0.547570
0  -0.028000 -79.344200 -9.893000  -0.898106 0.042471 -0.437723  0.009501 0.257725
sword03.jpg
0  -1.468000 -79.344200 -1.768000  -0.995005 0.011243 -0.099194  0.088979 0.257162
0  -0.776000 -52.289700 -5.643000  -0.995005 0.011243 -0.099194  0.053256 0.547209
0  -0.820000 -79.344200 -8.268000  -0.995005 0.011243 -0.099194  0.028428 0.257917
sword03.jpg
0  -0.892000 -79.344200 3.982001  -0.995019 -0.001433 0.099675  0.142986 0.256241
0  -1.388000 -52.289700 -0.580500  -0.995019 -0.001433 0.099675  0.101378 0.546981
0  -1.468000 -79.344200 -1.768000  -0.995019 -0.001433 0.099675  0.088979 0.257162
sword03.jpg
0  -0.892000 -79.344200 3.982001  -0.945726 0.004680 0.324932  0.142986 0.256241
0  -0.028000 -52.289700 6.106999  -0.945726 0.004680 0.324932  0.167489 0.546758
0  -0.844000 -52.289700 3.732000  -0.945726 0.004680 0.324932  0.142357 0.546840
sword03.jpg
0  -0.028000 -52.289700 6.106999  0.962212 -0.004965 0.272255  0.351627 0.453242
0  0.644000 -11.166861 4.482000  0.962212 -0.004965 0.272255  0.335051 0.009566
0  -0.028000 -11.166861 6.857001  0.962212 -0.004965 0.272255  0.359302 0.009636
sword03.jpg
0  0.788000 -52.289700 3.732000  0.988076 0.000652 0.153968  0.326495 0.453160
0  1.092000 -11.166861 1.607000  0.988076 0.000652 0.153968  0.307423 0.009485
0  0.644000 -11.166861 4.482000  0.988076 0.000652 0.153968  0.335051 0.009566
sword03.jpg
0  1.332000 -52.289700 -0.580500  0.990387 0.013105 -0.137698  0.285517 0.453019
0  0.588000 -11.166861 -2.018000  0.990387 0.013105 -0.137698  0.272771 0.009264
0  1.092000 -11.166861 1.607000  0.990387 0.013105 -0.137698  0.307423 0.009485
sword03.jpg
0  0.720000 -52.289700 -5.643000  0.934522 0.034228 -0.354256  0.237395 0.452791
0  -0.028000 -11.166861 -3.643000  0.934522 0.034228 -0.354256  0.255136 0.008974
0  0.588000 -11.166861 -2.018000  0.934522 0.034228 -0.354256  0.272771 0.009264
sword03.jpg
0  -0.776000 -52.289700 -5.643000  -0.907768 0.036834 -0.417853  0.053256 0.547209
0  -0.028000 -11.166861 -3.643000  -0.907768 0.036834 -0.417853  0.070997 0.991026
0  -0.028000 -52.289700 -7.268000  -0.907768 0.036834 -0.417853  0.034505 0.547570
sword03.jpg
0  -1.388000 -52.289700 -0.580500  -0.992678 0.013765 -0.120004  0.101378 0.546981
0  -0.644000 -11.166861 -2.018000  -0.992678 0.013765 -0.120004  0.088633 0.990736
0  -0.776000 -52.289700 -5.643000  -0.992678 0.013765 -0.120004  0.053256 0.547209
sword03.jpg
0  -0.844000 -52.289700 3.732000  -0.992137 -0.000867 0.125153  0.142357 0.546840
0  -1.148000 -11.166861 1.607000  -0.992137 -0.000867 0.125153  0.123285 0.990516
0  -1.388000 -52.289700 -0.580500  -0.992137 -0.000867 0.125153  0.101378 0.546981
sword03.jpg
0  -0.028000 -52.289700 6.106999  -0.945733 -0.002614 0.324934  0.167489 0.546758
0  -0.700000 -11.166861 4.482000  -0.945733 -0.002614 0.324934  0.150912 0.990434
0  -0.844000 -52.289700 3.732000  -0.945733 -0.002614 0.324934  0.142357 0.546840
sword03.jpg
0  -0.948000 -15.660247 15.588009  -0.747106 -0.227966 0.624391  0.428309 0.833992
0  -0.948000 -15.164781 15.768905  -0.747106 -0.227966 0.624391  0.433202 0.836703
0  -1.228000 -15.329160 15.373858  -0.747106 -0.227966 0.624391  0.433202 0.830931
sword03.jpg
0  -0.948000 -6.124595 8.295857  -0.518556 0.811097 0.270595  0.638716 0.279238
0  -1.228000 -6.359705 8.464011  -0.518556 0.811097 0.270595  0.632795 0.280570
0  -0.948000 -6.341190 8.945091  -0.518556 0.811097 0.270595  0.635834 0.285823
sword03.jpg
0  -0.948000 -5.584897 0.707208  -0.504373 0.863045 -0.027587  0.648619 0.208271
0  -1.228000 -5.734837 1.135646  -0.504373 0.863045 -0.027587  0.643538 0.212008
0  -0.948000 -5.558739 1.525546  -0.504373 0.863045 -0.027587  0.648494 0.215910
sword03.jpg
0  -0.948000 -6.173367 -8.452359  -0.515478 0.837691 -0.180431  0.648211 0.121470
0  -1.228000 -6.240000 -7.961782  -0.515478 0.837691 -0.180431  0.643963 0.126041
0  -0.948000 -6.012500 -7.705500  -0.515478 0.837691 -0.180431  0.649516 0.128889
sword03.jpg
0  -0.948000 -10.448230 -15.020252  -0.710400 0.199485 -0.674935  0.608300 0.039984
0  -1.228000 -10.193817 -14.650343  -0.710400 0.199485 -0.674935  0.607266 0.045894
0  -0.948000 -9.816854 -14.833641  -0.710400 0.199485 -0.674935  0.613200 0.045004
sword03.jpg
0  -0.948000 -16.844574 -12.466276  -0.840045 -0.530903 -0.111654  0.611122 0.683717
0  -1.228000 -16.381584 -12.561121  -0.840045 -0.530903 -0.111654  0.611122 0.677218
0  -0.948000 -16.755301 -12.890748  -0.840045 -0.530903 -0.111654  0.607256 0.682443
sword03.jpg
0  -0.948000 -11.188082 -4.356841  -0.888623 -0.458572 0.007852  0.836797 0.689574
0  -1.228000 -10.652695 -4.777272  -0.888623 -0.458572 0.007852  0.843605 0.685234
0  -0.948000 -11.202055 -5.172927  -0.888623 -0.458572 0.007852  0.836212 0.681990
sword03.jpg
0  -0.948000 -13.401091 1.430724  -0.661537 -0.747917 0.054682  0.821523 0.747226
0  -1.228000 -13.180488 1.060628  -0.661537 -0.747917 0.054682  0.826191 0.743710
0  -0.948000 -13.451700 0.738506  -0.661537 -0.747917 0.054682  0.821144 0.740764
sword03.jpg
0  -0.948000 -11.023577 7.241080  -0.889622 -0.453924 -0.050252  0.837673 0.806343
0  -1.228000 -10.438893 6.916572  -0.889622 -0.453924 -0.050252  0.845321 0.803718
0  -0.948000 -10.934070 6.432564  -0.889622 -0.453924 -0.050252  0.838871 0.798842
sword03.jpg
0  -0.948000 -12.481097 9.799155  -0.891058 -0.336490 -0.304614  0.823698 0.831354
0  -1.228000 -11.866079 9.938837  -0.891058 -0.336490 -0.304614  0.831473 0.832657
0  -0.948000 -11.959450 9.222921  -0.891058 -0.336490 -0.304614  0.828592 0.825319
sword03.jpg
0  -0.948000 -16.845966 12.750991  -0.695226 -0.688553 -0.206291  0.428309 0.807217
0  -1.228000 -16.505684 12.558839  -0.695226 -0.688553 -0.206291  0.428309 0.812983
0  -0.948000 -16.670357 12.164846  -0.695226 -0.688553 -0.206291  0.433311 0.810114
sword03.jpg
0  0.892000 -15.660246 15.588009  0.747108 -0.227966 0.624388  0.868318 0.646098
0  1.172000 -15.329160 15.373858  0.747108 -0.227966 0.624388  0.863270 0.648895
0  0.892000 -15.164782 15.768905  0.747108 -0.227966 0.624388  0.868318 0.651692
sword03.jpg
0  0.892000 -6.341190 8.945091  0.518556 0.811097 0.270595  0.435675 0.285823
0  1.172000 -6.359705 8.464011  0.518556 0.811097 0.270595  0.438714 0.280570
0  0.892000 -6.124595 8.295857  0.518556 0.811097 0.270595  0.432793 0.279238
sword03.jpg
0  0.892000 -5.558739 1.525546  0.504373 0.863045 -0.027587  0.423015 0.215910
0  1.172000 -5.734837 1.135646  0.504373 0.863045 -0.027587  0.427970 0.212008
0  0.892000 -5.584897 0.707208  0.504373 0.863045 -0.027587  0.422890 0.208271
sword03.jpg
0  0.892000 -6.012500 -7.705500  0.515478 0.837691 -0.180431  0.421992 0.128889
0  1.172000 -6.240000 -7.961782  0.515478 0.837691 -0.180431  0.427546 0.126042
0  0.892000 -6.173367 -8.452359  0.515478 0.837691 -0.180431  0.423297 0.121470
sword03.jpg
0  0.892000 -9.816854 -14.833641  0.710399 0.199485 -0.674936  0.458309 0.045004
0  1.172000 -10.193817 -14.650343  0.710399 0.199485 -0.674936  0.464243 0.045894
0  0.892000 -10.448230 -15.020252  0.710399 0.199485 -0.674936  0.463208 0.039984
sword03.jpg
0  0.892000 -16.755301 -12.890748  0.840045 -0.530903 -0.111654  0.671331 0.690805
0  1.172000 -16.381584 -12.561121  0.840045 -0.530903 -0.111654  0.671331 0.684305
0  0.892000 -16.844574 -12.466276  0.840045 -0.530903 -0.111654  0.667465 0.689530
sword03.jpg
0  0.892000 -11.202055 -5.172927  0.888623 -0.458572 0.007852  0.713578 0.681990
0  1.172000 -10.652695 -4.777272  0.888623 -0.458572 0.007852  0.706185 0.685235
0  0.892000 -11.188082 -4.356841  0.888623 -0.458572 0.007852  0.712994 0.689574
sword03.jpg
0  0.892000 -13.451700 0.738506  0.661537 -0.747917 0.054682  0.728647 0.740764
0  1.172000 -13.180488 1.060628  0.661537 -0.747917 0.054682  0.723599 0.743710
0  0.892000 -13.401091 1.430724  0.661537 -0.747917 0.054682  0.728267 0.747226
sword03.jpg
0  0.892000 -10.934070 6.432564  0.889622 -0.453924 -0.050252  0.710919 0.798842
0  1.172000 -10.438893 6.916572  0.889622 -0.453924 -0.050252  0.704470 0.803718
0  0.892000 -11.023577 7.241080  0.889622 -0.453924 -0.050252  0.712117 0.806343
sword03.jpg
0  0.892000 -11.959450 9.222921  0.891058 -0.336490 -0.304614  0.721198 0.825319
0  1.172000 -11.866079 9.938837  0.891058 -0.336490 -0.304614  0.718318 0.832657
0  0.892000 -12.481097 9.799155  0.891058 -0.336490 -0.304614  0.726092 0.831354
sword03.jpg
0  0.892000 -16.845964 12.750991  0.695223 -0.688557 -0.206288  0.583478 0.831635
0  0.892000 -16.670357 12.164846  0.695223 -0.688557 -0.206288  0.578476 0.828737
0  1.172000 -16.505684 12.558839  0.695223 -0.688557 -0.206288  0.578476 0.834503
sword03.jpg
0  -1.228000 -15.329160 15.373858  -0.810943 -0.539870 0.225636  0.433311 0.744279
0  -0.948000 -16.845966 12.750991  -0.810943 -0.539870 0.225636  0.427545 0.715169
0  -0.948000 -15.660247 15.588009  -0.810943 -0.539870 0.225636  0.427545 0.744527
sword03.jpg
0  -0.948000 -12.481097 9.799155  -0.834492 -0.270946 -0.479803  0.823698 0.831354
0  -1.228000 -16.505684 12.558839  -0.834492 -0.270946 -0.479803  0.787363 0.866489
0  -1.228000 -11.866079 9.938837  -0.834492 -0.270946 -0.479803  0.831473 0.832657
sword03.jpg
0  -1.228000 -10.438893 6.916572  -0.812417 -0.527246 -0.248979  0.845321 0.803718
0  -0.948000 -11.959450 9.222921  -0.812417 -0.527246 -0.248979  0.828592 0.825319
0  -1.228000 -11.866079 9.938837  -0.812417 -0.527246 -0.248979  0.831473 0.832657
sword03.jpg
0  -1.228000 -11.147166 3.644132  -0.806232 -0.578211 0.125145  0.841261 0.772547
0  -0.948000 -10.934070 6.432564  -0.806232 -0.578211 0.125145  0.838871 0.798842
0  -1.228000 -10.438893 6.916572  -0.806232 -0.578211 0.125145  0.845321 0.803718
sword03.jpg
0  -0.948000 -13.401091 1.430724  -0.820735 -0.448942 0.353335  0.821523 0.747226
0  -1.228000 -11.147166 3.644132  -0.820735 -0.448942 0.353335  0.841261 0.772547
0  -1.228000 -13.180488 1.060628  -0.820735 -0.448942 0.353335  0.826191 0.743710
sword03.jpg
0  -1.228000 -11.582758 -1.822964  -0.814676 -0.507256 -0.281058  0.837557 0.713898
0  -0.948000 -13.451700 0.738506  -0.814676 -0.507256 -0.281058  0.821144 0.740764
0  -1.228000 -13.180488 1.060628  -0.814676 -0.507256 -0.281058  0.826191 0.743710
sword03.jpg
0  -0.948000 -11.188082 -4.356841  -0.808320 -0.561572 -0.176792  0.836797 0.689574
0  -1.228000 -11.582758 -1.822964  -0.808320 -0.561572 -0.176792  0.837557 0.713898
0  -1.228000 -10.652695 -4.777272  -0.808320 -0.561572 -0.176792  0.843605 0.685234
sword03.jpg
0  -1.228000 -11.717153 -7.782792  -0.809282 -0.553718 0.196109  0.832894 0.656932
0  -0.948000 -11.202055 -5.172927  -0.809282 -0.553718 0.196109  0.836212 0.681990
0  -1.228000 -10.652695 -4.777272  -0.809282 -0.553718 0.196109  0.843605 0.685234
sword03.jpg
0  -0.948000 -14.846272 -10.268000  -0.825708 -0.394286 0.403415  0.802155 0.629681
0  -1.228000 -11.717153 -7.782792  -0.825708 -0.394286 0.403415  0.832894 0.656932
0  -1.228000 -14.593115 -10.593676  -0.825708 -0.394286 0.403415  0.806625 0.626038
sword03.jpg
0  -1.228000 -16.381584 -12.561121  -0.823469 -0.419826 0.381635  0.790260 0.605086
0  -0.948000 -14.846272 -10.268000  -0.823469 -0.419826 0.381635  0.802155 0.629681
0  -1.228000 -14.593115 -10.593676  -0.823469 -0.419826 0.381635  0.806625 0.626038
sword03.jpg
0  -0.948000 -10.448230 -15.020252  -0.839069 -0.174031 -0.515438  0.608300 0.039984
0  -1.228000 -16.381584 -12.561121  -0.839069 -0.174031 -0.515438  0.544897 0.015472
0  -1.228000 -10.193817 -14.650343  -0.839069 -0.174031 -0.515438  0.607266 0.045894
sword03.jpg
0  -0.948000 -6.173367 -8.452359  -0.738851 0.580095 -0.342912  0.648211 0.121470
0  -1.228000 -10.193817 -14.650343  -0.738851 0.580095 -0.342912  0.607266 0.045894
0  -1.228000 -6.240000 -7.961782  -0.738851 0.580095 -0.342912  0.643963 0.126041
sword03.jpg
0  -1.228000 -6.240000 -1.050157  -0.630593 0.776114 0.000000  0.638744 0.190239
0  -0.948000 -6.012500 -7.705500  -0.630593 0.776114 0.000000  0.649516 0.128889
0  -1.228000 -6.240000 -7.961782  -0.630593 0.776114 0.000000  0.643963 0.126041
sword03.jpg
0  -0.948000 -5.584897 0.707208  -0.654771 0.736416 -0.170194  0.648619 0.208271
0  -1.228000 -6.240000 -1.050157  -0.654771 0.736416 -0.170194  0.638744 0.190239
0  -1.228000 -5.734837 1.135646  -0.654771 0.736416 -0.170194  0.643538 0.212008
sword03.jpg
0  -1.228000 -6.172346 3.900130  -0.642679 0.756717 0.119759  0.636887 0.238103
0  -0.948000 -5.558739 1.525546  -0.642679 0.756717 0.119759  0.648494 0.215910
0  -1.228000 -5.734837 1.135646  -0.642679 0.756717 0.119759  0.643538 0.212008
sword03.jpg
0  -0.948000 -6.124595 8.295857  -0.631452 0.774762 0.031806  0.638716 0.279238
0  -1.228000 -6.172346 3.900130  -0.631452 0.774762 0.031806  0.636887 0.238103
0  -1.228000 -6.359705 8.464011  -0.631452 0.774762 0.031806  0.632795 0.280570
sword03.jpg
0  -1.228000 -15.329160 15.373858  -0.814018 0.354475 0.460132  0.544729 0.379173
0  -0.948000 -6.341190 8.945091  -0.814018 0.354475 0.460132  0.635834 0.285823
0  -1.228000 -6.359705 8.464011  -0.814018 0.354475 0.460132  0.632795 0.280570
sword03.jpg
0  1.172000 -15.329160 15.373858  0.810943 -0.539871 0.225636  0.667465 0.666109
0  0.892000 -16.845964 12.750991  0.810943 -0.539871 0.225636  0.673231 0.636999
0  1.172000 -16.505684 12.558839  0.810943 -0.539871 0.225636  0.667465 0.636979
sword03.jpg
0  1.172000 -15.329160 15.373858  0.827745 0.343262 0.443857  0.526780 0.379173
0  0.892000 -6.341190 8.945091  0.827745 0.343262 0.443857  0.435675 0.285823
0  0.892000 -15.164782 15.768905  0.827745 0.343262 0.443857  0.522645 0.383198
sword03.jpg
0  0.892000 -6.124595 8.295857  0.631451 0.774763 0.031806  0.432793 0.279238
0  1.172000 -6.172346 3.900130  0.631451 0.774763 0.031806  0.434621 0.238103
0  0.892000 -5.947500 3.982001  0.631451 0.774763 0.031806  0.428925 0.239098
sword03.jpg
0  1.172000 -6.172346 3.900130  0.642677 0.756719 0.119759  0.434621 0.238103
0  0.892000 -5.558739 1.525546  0.642677 0.756719 0.119759  0.423015 0.215910
0  0.892000 -5.947500 3.982001  0.642677 0.756719 0.119759  0.428925 0.239098
sword03.jpg
0  0.892000 -5.584897 0.707208  0.654771 0.736416 -0.170194  0.422890 0.208271
0  1.172000 -6.240000 -1.050157  0.654771 0.736416 -0.170194  0.432765 0.190239
0  0.892000 -6.012500 -1.143000  0.654771 0.736416 -0.170194  0.426948 0.189844
sword03.jpg
0  1.172000 -6.240000 -1.050157  0.630592 0.776114 0.000000  0.432765 0.190239
0  0.892000 -6.012500 -7.705500  0.630592 0.776114 0.000000  0.421992 0.128889
0  0.892000 -6.012500 -1.143000  0.630592 0.776114 0.000000  0.426948 0.189844
sword03.jpg
0  0.892000 -6.173367 -8.452359  0.830977 0.483106 -0.275837  0.423297 0.121470
0  1.172000 -10.193817 -14.650343  0.830977 0.483106 -0.275837  0.464243 0.045894
0  0.892000 -9.816854 -14.833641  0.830977 0.483106 -0.275837  0.458309 0.045004
sword03.jpg
0  0.892000 -10.448230 -15.020252  0.839071 -0.174030 -0.515435  0.463208 0.039984
0  1.172000 -16.381584 -12.561121  0.839071 -0.174030 -0.515435  0.526612 0.015472
0  0.892000 -16.755301 -12.890748  0.839071 -0.174030 -0.515435  0.526780 0.008974
sword03.jpg
0  1.172000 -16.381584 -12.561121  0.823469 -0.419826 0.381635  0.759531 0.605086
0  0.892000 -14.846272 -10.268000  0.823469 -0.419826 0.381635  0.747636 0.629681
0  0.892000 -16.844574 -12.466276  0.823469 -0.419826 0.381635  0.765921 0.606272
sword03.jpg
0  0.892000 -14.846272 -10.268000  0.825711 -0.394284 0.403413  0.747636 0.629681
0  1.172000 -11.717153 -7.782792  0.825711 -0.394284 0.403413  0.716897 0.656932
0  0.892000 -12.032604 -7.518000  0.825711 -0.394284 0.403413  0.721936 0.659907
sword03.jpg
0  1.172000 -11.717153 -7.782792  0.809283 -0.553718 0.196109  0.716897 0.656932
0  0.892000 -11.202055 -5.172927  0.809283 -0.553718 0.196109  0.713578 0.681990
0  0.892000 -12.032604 -7.518000  0.809283 -0.553718 0.196109  0.721936 0.659907
sword03.jpg
0  0.892000 -11.188082 -4.356841  0.808320 -0.561572 -0.176792  0.712994 0.689574
0  1.172000 -11.582758 -1.822964  0.808320 -0.561572 -0.176792  0.712234 0.713898
0  0.892000 -11.924386 -2.018000  0.808320 -0.561572 -0.176792  0.717782 0.712266
sword03.jpg
0  1.172000 -11.582758 -1.822964  0.814677 -0.507256 -0.281058  0.712234 0.713898
0  0.892000 -13.451700 0.738506  0.814677 -0.507256 -0.281058  0.728647 0.740764
0  0.892000 -11.924386 -2.018000  0.814677 -0.507256 -0.281058  0.717782 0.712266
sword03.jpg
0  0.892000 -13.401091 1.430724  0.820735 -0.448942 0.353335  0.728267 0.747226
0  1.172000 -11.147166 3.644132  0.820735 -0.448942 0.353335  0.708529 0.772547
0  0.892000 -11.491513 3.857000  0.820735 -0.448942 0.353335  0.714115 0.774309
sword03.jpg
0  1.172000 -11.147166 3.644132  0.806232 -0.578211 0.125146  0.708529 0.772547
0  0.892000 -10.934070 6.432564  0.806232 -0.578211 0.125146  0.710919 0.798842
0  0.892000 -11.491513 3.857000  0.806232 -0.578211 0.125146  0.714115 0.774309
sword03.jpg
0  1.172000 -10.438893 6.916572  0.812418 -0.527246 -0.248978  0.704470 0.803718
0  0.892000 -11.959450 9.222921  0.812418 -0.527246 -0.248978  0.721198 0.825319
0  0.892000 -11.023577 7.241080  0.812418 -0.527246 -0.248978  0.712117 0.806343
sword03.jpg
0  0.892000 -12.481097 9.799155  0.834490 -0.270948 -0.479805  0.726092 0.831354
0  1.172000 -16.505684 12.558839  0.834490 -0.270948 -0.479805  0.762428 0.866489
0  0.892000 -16.670357 12.164846  0.834490 -0.270948 -0.479805  0.765921 0.861902
sword03.jpg
0  -0.948000 -15.164781 15.768905  -0.000001 -0.342960 0.939350  0.861135 0.587138
0  0.892000 -15.660246 15.588009  -0.000001 -0.342960 0.939350  0.866728 0.560345
0  0.892000 -15.164782 15.768905  -0.000001 -0.342960 0.939350  0.861135 0.560345
sword03.jpg
0  -0.948000 -6.341190 8.945091  0.000000 0.948602 0.316471  0.377251 0.337462
0  0.892000 -6.124595 8.295857  0.000000 0.948602 0.316471  0.404043 0.330273
0  -0.948000 -6.124595 8.295857  0.000000 0.948602 0.316471  0.377251 0.330273
sword03.jpg
0  -0.948000 -5.558739 1.525546  0.000000 0.999490 -0.031947  0.377251 0.266019
0  0.892000 -5.584897 0.707208  0.000000 0.999490 -0.031947  0.404043 0.258378
0  -0.948000 -5.584897 0.707208  0.000000 0.999490 -0.031947  0.377251 0.258378
sword03.jpg
0  -0.948000 -6.012500 -7.705500  0.000000 0.977581 -0.210561  0.377251 0.178354
0  0.892000 -6.173367 -8.452359  0.000000 0.977581 -0.210561  0.404043 0.170820
0  -0.948000 -6.173367 -8.452359  0.000000 0.977581 -0.210561  0.377251 0.170820
sword03.jpg
0  -0.948000 -9.816854 -14.833641  0.000000 0.283442 -0.958990  0.377251 0.086721
0  0.892000 -10.448230 -15.020252  0.000000 0.283442 -0.958990  0.404043 0.079706
0  -0.948000 -10.448230 -15.020252  0.000000 0.283442 -0.958990  0.377251 0.079706
sword03.jpg
0  -0.948000 -16.844574 -12.466276  0.000000 -0.978592 -0.205811  0.433311 0.762476
0  0.892000 -16.755301 -12.890748  0.000000 -0.978592 -0.205811  0.429240 0.789268
0  0.892000 -16.844574 -12.466276  0.000000 -0.978592 -0.205811  0.433311 0.789268
sword03.jpg
0  -0.948000 -11.202055 -5.172927  0.000000 -0.999853 0.017117  0.478052 0.808140
0  0.892000 -11.188082 -4.356841  0.000000 -0.999853 0.017117  0.451260 0.815746
0  -0.948000 -11.188082 -4.356841  0.000000 -0.999853 0.017117  0.478052 0.815746
sword03.jpg
0  -0.948000 -13.451700 0.738506  0.000000 -0.997338 0.072920  0.867608 0.288924
0  0.892000 -13.401091 1.430724  0.000000 -0.997338 0.072920  0.861135 0.262131
0  -0.948000 -13.401091 1.430724  0.000000 -0.997338 0.072920  0.861135 0.288924
sword03.jpg
0  -0.948000 -10.934070 6.432564  0.000000 -0.993928 -0.110035  0.522793 0.770467
0  0.892000 -11.023577 7.241080  0.000000 -0.993928 -0.110035  0.496001 0.778063
0  -0.948000 -11.023577 7.241080  0.000000 -0.993928 -0.110035  0.522793 0.778063
sword03.jpg
0  -0.948000 -11.959450 9.222921  0.000000 -0.741349 -0.671119  0.522793 0.799100
0  0.892000 -12.481097 9.799155  0.000000 -0.741349 -0.671119  0.496001 0.806870
0  -0.948000 -12.481097 9.799155  0.000000 -0.741349 -0.671119  0.522793 0.806870
sword03.jpg
0  -0.948000 -16.670357 12.164846  0.000001 -0.957930 -0.287002  0.861135 0.506768
0  0.892000 -16.845964 12.750991  0.000001 -0.957930 -0.287002  0.866915 0.533560
0  -0.948000 -16.845966 12.750991  0.000001 -0.957930 -0.287002  0.866915 0.506768
sword03.jpg
0  0.892000 -16.845964 12.750991  0.000001 -0.922657 0.385621  0.861135 0.459461
0  -0.948000 -15.660247 15.588009  0.000001 -0.922657 0.385621  0.887927 0.488819
0  -0.948000 -16.845966 12.750991  0.000001 -0.922657 0.385621  0.887927 0.459461
sword03.jpg
0  -1.228000 -6.240000 -1.050157  -1.000000 0.000000 0.000000  0.834017 0.135357
0  -1.228000 -11.582758 -1.822964  -1.000000 0.000000 0.000000  0.756695 0.128596
0  -1.228000 -11.147166 3.644132  -1.000000 0.000000 0.000000  0.761675 0.179517
sword03.jpg
0  -0.948000 -15.164781 15.768905  0.000000 0.611761 0.791043  0.377251 0.468021
0  0.892000 -6.341190 8.945091  0.000000 0.611761 0.791043  0.404043 0.337462
0  -0.948000 -6.341190 8.945091  0.000000 0.611761 0.791043  0.377251 0.337462
sword03.jpg
0  0.892000 -6.124595 8.295857  0.000000 0.999158 0.041018  0.404043 0.330273
0  -0.948000 -5.947500 3.982001  0.000000 0.999158 0.041018  0.377251 0.289947
0  -0.948000 -6.124595 8.295857  0.000000 0.999158 0.041018  0.377251 0.330273
sword03.jpg
0  0.892000 -5.947500 3.982001  0.000000 0.987707 0.156316  0.404043 0.289947
0  -0.948000 -5.558739 1.525546  0.000000 0.987707 0.156316  0.377251 0.266019
0  -0.948000 -5.947500 3.982001  0.000000 0.987707 0.156316  0.377251 0.289947
sword03.jpg
0  0.892000 -5.584897 0.707208  0.000000 0.974318 -0.225176  0.404043 0.258378
0  -0.948000 -6.012500 -1.143000  0.000000 0.974318 -0.225176  0.377251 0.239510
0  -0.948000 -5.584897 0.707208  0.000000 0.974318 -0.225176  0.377251 0.258378
sword03.jpg
0  0.892000 -6.012500 -1.143000  0.000000 1.000000 0.000000  0.404043 0.239510
0  -0.948000 -6.012500 -7.705500  0.000000 1.000000 0.000000  0.377251 0.178354
0  -0.948000 -6.012500 -1.143000  0.000000 1.000000 0.000000  0.377251 0.239510
sword03.jpg
0  0.892000 -6.173367 -8.452359  0.000000 0.868417 -0.495835  0.404043 0.170820
0  -0.948000 -9.816854 -14.833641  0.000000 0.868417 -0.495835  0.377251 0.086721
0  -0.948000 -6.173367 -8.452359  0.000000 0.868417 -0.495835  0.377251 0.170820
sword03.jpg
0  0.892000 -10.448230 -15.020252  0.000000 -0.319896 -0.947453  0.404043 0.079706
0  -0.948000 -16.755301 -12.890748  0.000000 -0.319896 -0.947453  0.377251 0.008974
0  -0.948000 -10.448230 -15.020252  0.000000 -0.319896 -0.947453  0.377251 0.079706
sword03.jpg
0  0.892000 -16.844574 -12.466276  0.000000 -0.739962 0.672649  0.451260 0.715149
0  -0.948000 -14.846272 -10.268000  0.000000 -0.739962 0.672649  0.478052 0.744854
0  -0.948000 -16.844574 -12.466276  0.000000 -0.739962 0.672649  0.478052 0.715149
sword03.jpg
0  0.892000 -14.846272 -10.268000  0.000000 -0.698969 0.715152  0.451260 0.744853
0  -0.948000 -12.032604 -7.518000  0.000000 -0.698969 0.715152  0.478052 0.784528
0  -0.948000 -14.846272 -10.268000  0.000000 -0.698969 0.715152  0.478052 0.744854
sword03.jpg
0  0.892000 -12.032604 -7.518000  0.000000 -0.942627 0.333848  0.451260 0.784528
0  -0.948000 -11.202055 -5.172927  0.000000 -0.942627 0.333848  0.478052 0.808140
0  -0.948000 -12.032604 -7.518000  0.000000 -0.942627 0.333848  0.478052 0.784528
sword03.jpg
0  0.892000 -11.188082 -4.356841  0.000000 -0.953849 -0.300287  0.451260 0.815746
0  -0.948000 -11.924386 -2.018000  0.000000 -0.953849 -0.300287  0.478052 0.838938
0  -0.948000 -11.188082 -4.356841  0.000000 -0.953849 -0.300287  0.478052 0.815746
sword03.jpg
0  0.892000 -11.924386 -2.018000  0.000000 -0.874706 -0.484654  0.451260 0.838938
0  -0.948000 -13.451700 0.738506  0.000000 -0.874706 -0.484654  0.478052 0.869437
0  -0.948000 -11.924386 -2.018000  0.000000 -0.874706 -0.484654  0.478052 0.838938
sword03.jpg
0  0.892000 -13.401091 1.430724  0.000000 -0.785812 0.618465  0.496001 0.715169
0  -0.948000 -11.491513 3.857000  0.000000 -0.785812 0.618465  0.522793 0.745727
0  -0.948000 -13.401091 1.430724  0.000000 -0.785812 0.618465  0.522793 0.715169
sword03.jpg
0  0.892000 -11.491513 3.857000  0.000000 -0.977370 0.211538  0.496001 0.745727
0  -0.948000 -10.934070 6.432564  0.000000 -0.977370 0.211538  0.522793 0.770467
0  -0.948000 -11.491513 3.857000  0.000000 -0.977370 0.211538  0.522793 0.745727
sword03.jpg
0  0.892000 -11.023577 7.241080  0.000000 -0.904248 -0.427007  0.496001 0.778063
0  -0.948000 -11.959450 9.222921  0.000000 -0.904248 -0.427007  0.522793 0.799100
0  -0.948000 -11.023577 7.241080  0.000000 -0.904248 -0.427007  0.522793 0.778063
sword03.jpg
0  0.892000 -12.481097 9.799155  0.000000 -0.491718 -0.870754  0.496001 0.806870
0  -0.948000 -16.670357 12.164846  0.000000 -0.491718 -0.870754  0.522793 0.857064
0  -0.948000 -12.481097 9.799155  0.000000 -0.491718 -0.870754  0.522793 0.806870
sword03.jpg
0  1.172000 -6.240000 -1.050157  1.000000 0.000000 0.000000  0.713639 0.433413
0  1.172000 -11.582758 -1.822964  1.000000 0.000000 0.000000  0.790960 0.426652
0  1.172000 -10.652695 -4.777272  1.000000 0.000000 0.000000  0.781106 0.399064
sword03.jpg
0  -1.628000 -6.012500 0.606999  0.000000 -1.000000 -0.000000  0.584946 0.885040
0  -1.159371 -6.012500 -1.302189  0.000000 -1.000000 -0.000000  0.584946 0.865985
0  1.103371 -6.012500 -1.302189  0.000000 -1.000000 -0.000000  0.615708 0.854186
sword03.jpg
0  -1.102802 10.497499 2.420730  0.000000 1.000000 0.000000  0.431398 0.887298
0  -0.028000 10.497499 3.172000  0.000000 1.000000 0.000000  0.419293 0.899440
0  1.046802 10.497499 2.420730  0.000000 1.000000 0.000000  0.402174 0.898507
sword03.jpg
0  1.572000 -6.012500 0.606999  0.961709 0.139252 0.236061  0.441048 0.401147
0  0.990234 -4.907500 2.325269  0.961709 0.139252 0.236061  0.423063 0.421069
0  1.103371 -6.012500 2.516188  0.961709 0.139252 0.236061  0.421992 0.401147
sword03.jpg
0  1.103371 -6.012500 2.516188  0.561749 0.196370 0.803664  0.631469 0.697220
0  -0.028000 -4.907500 3.037001  0.561749 0.196370 0.803664  0.648489 0.677285
0  -0.028000 -6.012500 3.307000  0.561749 0.196370 0.803664  0.649516 0.697220
sword03.jpg
0  -0.028000 -4.907500 3.037001  -0.561749 0.196370 0.803664  0.513020 0.421083
0  -1.159371 -6.012500 2.516188  -0.561749 0.196370 0.803664  0.496001 0.401147
0  -0.028000 -6.012500 3.307000  -0.561749 0.196370 0.803664  0.514048 0.401147
sword03.jpg
0  -1.046234 -4.907500 2.325269  -0.961709 0.139252 0.236061  0.476981 0.421069
0  -1.628000 -6.012500 0.606999  -0.961709 0.139252 0.236061  0.458996 0.401147
0  -1.159371 -6.012500 2.516188  -0.961709 0.139252 0.236061  0.478052 0.401147
sword03.jpg
0  -1.628000 -6.012500 0.606999  -0.961709 0.139252 -0.236061  0.686521 0.008974
0  -1.046234 -4.907500 -1.111269  -0.961709 0.139252 -0.236061  0.668537 0.028896
0  -1.159371 -6.012500 -1.302189  -0.961709 0.139252 -0.236061  0.667465 0.008974
sword03.jpg
0  -1.159371 -6.012500 -1.302189  -0.561749 0.196370 -0.803664  0.550044 0.401147
0  -0.028000 -4.907500 -1.823000  -0.561749 0.196370 -0.803664  0.533024 0.421083
0  -0.028000 -6.012500 -2.093000  -0.561749 0.196370 -0.803664  0.531996 0.401147
sword03.jpg
0  -0.028000 -4.907500 -1.823000  0.561749 0.196370 -0.803664  0.585012 0.421083
0  1.103371 -6.012500 -1.302189  0.561749 0.196370 -0.803664  0.567992 0.401147
0  -0.028000 -6.012500 -2.093000  0.561749 0.196370 -0.803664  0.586039 0.401147
sword03.jpg
0  0.990234 -4.907500 -1.111269  0.961709 0.139252 -0.236061  0.685449 0.342898
0  1.572000 -6.012500 0.606999  0.961709 0.139252 -0.236061  0.667465 0.322976
0  1.103371 -6.012500 -1.302189  0.961709 0.139252 -0.236061  0.686521 0.322976
sword03.jpg
0  1.412000 -4.907500 0.606999  0.970665 0.032288 0.238259  0.440213 0.421069
0  0.933665 -2.502500 2.229810  0.970665 0.032288 0.238259  0.423599 0.464184
0  0.990234 -4.907500 2.325269  0.970665 0.032288 0.238259  0.423063 0.421069
sword03.jpg
0  0.990234 -4.907500 2.325269  0.572299 0.045960 0.818756  0.632247 0.677285
0  -0.028000 -2.502500 2.902000  0.572299 0.045960 0.818756  0.647975 0.634169
0  -0.028000 -4.907500 3.037001  0.572299 0.045960 0.818756  0.648489 0.677285
sword03.jpg
0  -0.028000 -2.502500 2.902000  -0.572299 0.045960 0.818756  0.512506 0.464199
0  -1.046234 -4.907500 2.325269  -0.572299 0.045960 0.818756  0.496778 0.421083
0  -0.028000 -4.907500 3.037001  -0.572299 0.045960 0.818756  0.513020 0.421083
sword03.jpg
0  -0.989665 -2.502500 2.229810  -0.970665 0.032288 0.238259  0.476445 0.464184
0  -1.468000 -4.907500 0.606999  -0.970665 0.032288 0.238259  0.459831 0.421069
0  -1.046234 -4.907500 2.325269  -0.970665 0.032288 0.238259  0.476981 0.421069
sword03.jpg
0  -1.468000 -4.907500 0.606999  -0.970665 0.032288 -0.238259  0.685686 0.028896
0  -0.989665 -2.502500 -1.015810  -0.970665 0.032288 -0.238259  0.669072 0.072011
0  -1.046234 -4.907500 -1.111269  -0.970665 0.032288 -0.238259  0.668537 0.028896
sword03.jpg
0  -1.046234 -4.907500 -1.111269  -0.572299 0.045959 -0.818756  0.549266 0.421083
0  -0.028000 -2.502500 -1.688000  -0.572299 0.045959 -0.818756  0.533538 0.464199
0  -0.028000 -4.907500 -1.823000  -0.572299 0.045959 -0.818756  0.533024 0.421083
sword03.jpg
0  -0.028000 -2.502500 -1.688000  0.572299 0.045959 -0.818756  0.584498 0.464199
0  0.990234 -4.907500 -1.111269  0.572299 0.045959 -0.818756  0.568770 0.421083
0  -0.028000 -4.907500 -1.823000  0.572299 0.045959 -0.818756  0.585012 0.421083
sword03.jpg
0  0.933665 -2.502500 -1.015810  0.970665 0.032288 -0.238259  0.684914 0.386013
0  1.412000 -4.907500 0.606999  0.970665 0.032288 -0.238259  0.668299 0.342898
0  0.990234 -4.907500 -1.111269  0.970665 0.032288 -0.238259  0.685449 0.342898
sword03.jpg
0  1.332000 0.747501 0.606999  0.971171 0.000000 0.238383  0.439796 0.522427
0  0.933665 -2.502500 2.229810  0.971171 0.000000 0.238383  0.423599 0.464184
0  1.332000 -2.502500 0.606999  0.971171 0.000000 0.238383  0.439796 0.464184
sword03.jpg
0  0.933665 0.747501 2.229810  0.572904 0.000000 0.819623  0.632635 0.575925
0  -0.028000 -2.502500 2.902000  0.572904 0.000000 0.819623  0.647975 0.634169
0  0.933665 -2.502500 2.229810  0.572904 0.000000 0.819623  0.632635 0.634169
sword03.jpg
0  -0.028000 0.747501 2.902000  -0.572904 0.000000 0.819623  0.512506 0.522443
0  -0.989665 -2.502500 2.229810  -0.572904 0.000000 0.819623  0.497166 0.464199
0  -0.028000 -2.502500 2.902000  -0.572904 0.000000 0.819623  0.512506 0.464199
sword03.jpg
0  -0.989665 0.747501 2.229810  -0.971171 0.000000 0.238383  0.476445 0.522427
0  -1.388000 -2.502500 0.606999  -0.971171 0.000000 0.238383  0.460248 0.464184
0  -0.989665 -2.502500 2.229810  -0.971171 0.000000 0.238383  0.476445 0.464184
sword03.jpg
0  -1.388000 0.747501 0.606999  -0.971171 0.000000 -0.238384  0.685269 0.130255
0  -0.989665 -2.502500 -1.015810  -0.971171 0.000000 -0.238384  0.669072 0.072011
0  -1.388000 -2.502500 0.606999  -0.971171 0.000000 -0.238384  0.685269 0.072011
sword03.jpg
0  -0.989665 0.747501 -1.015810  -0.572904 0.000000 -0.819622  0.548878 0.522443
0  -0.028000 -2.502500 -1.688000  -0.572904 0.000000 -0.819622  0.533538 0.464199
0  -0.989665 -2.502500 -1.015810  -0.572904 0.000000 -0.819622  0.548878 0.464199
sword03.jpg
0  -0.028000 0.747501 -1.688000  0.572905 0.000000 -0.819622  0.584498 0.522443
0  0.933665 -2.502500 -1.015810  0.572905 0.000000 -0.819622  0.569158 0.464199
0  -0.028000 -2.502500 -1.688000  0.572905 0.000000 -0.819622  0.584498 0.464199
sword03.jpg
0  0.933665 0.747501 -1.015810  0.971171 0.000000 -0.238384  0.684914 0.444257
0  1.332000 -2.502500 0.606999  0.971171 0.000000 -0.238384  0.668717 0.386013
0  0.933665 -2.502500 -1.015810  0.971171 0.000000 -0.238384  0.684914 0.386013
sword03.jpg
0  1.332000 3.997500 0.606999  0.971171 0.000000 0.238383  0.439796 0.580671
0  0.933665 0.747501 2.229810  0.971171 0.000000 0.238383  0.423599 0.522427
0  1.332000 0.747501 0.606999  0.971171 0.000000 0.238383  0.439796 0.522427
sword03.jpg
0  0.933665 3.997500 2.229810  0.572904 0.000000 0.819623  0.632635 0.517681
0  -0.028000 0.747501 2.902000  0.572904 0.000000 0.819623  0.647975 0.575925
0  0.933665 0.747501 2.229810  0.572904 0.000000 0.819623  0.632635 0.575925
sword03.jpg
0  -0.028000 3.997500 2.902000  -0.572904 0.000000 0.819623  0.512506 0.580687
0  -0.989665 0.747501 2.229810  -0.572904 0.000000 0.819623  0.497166 0.522443
0  -0.028000 0.747501 2.902000  -0.572904 0.000000 0.819623  0.512506 0.522443
sword03.jpg
0  -0.989665 3.997500 2.229810  -0.971171 0.000000 0.238383  0.476445 0.580671
0  -1.388000 0.747501 0.606999  -0.971171 0.000000 0.238383  0.460248 0.522427
0  -0.989665 0.747501 2.229810  -0.971171 0.000000 0.238383  0.476445 0.522427
sword03.jpg
0  -1.388000 3.997500 0.606999  -0.971171 0.000000 -0.238384  0.685269 0.188498
0  -0.989665 0.747501 -1.015810  -0.971171 0.000000 -0.238384  0.669072 0.130255
0  -1.388000 0.747501 0.606999  -0.971171 0.000000 -0.238384  0.685269 0.130255
sword03.jpg
0  -0.989665 3.997500 -1.015810  -0.572904 0.000000 -0.819622  0.548878 0.580687
0  -0.028000 0.747501 -1.688000  -0.572904 0.000000 -0.819622  0.533538 0.522443
0  -0.989665 0.747501 -1.015810  -0.572904 0.000000 -0.819622  0.548878 0.522443
sword03.jpg
0  -0.028000 3.997500 -1.688000  0.572905 0.000000 -0.819622  0.584498 0.580687
0  0.933665 0.747501 -1.015810  0.572905 0.000000 -0.819622  0.569158 0.522443
0  -0.028000 0.747501 -1.688000  0.572905 0.000000 -0.819622  0.584498 0.522443
sword03.jpg
0  0.933665 3.997500 -1.015810  0.971171 0.000000 -0.238384  0.684914 0.502500
0  1.332000 0.747501 0.606999  0.971171 0.000000 -0.238384  0.668717 0.444257
0  0.933665 0.747501 -1.015810  0.971171 0.000000 -0.238384  0.684914 0.444257
sword03.jpg
0  1.332000 7.312500 0.606999  0.971171 0.000000 0.238383  0.439796 0.640080
0  0.933665 3.997500 2.229810  0.971171 0.000000 0.238383  0.423599 0.580671
0  1.332000 3.997500 0.606999  0.971171 0.000000 0.238383  0.439796 0.580671
sword03.jpg
0  0.933665 7.312500 2.229810  0.572904 0.000000 0.819623  0.632635 0.458272
0  -0.028000 3.997500 2.902000  0.572904 0.000000 0.819623  0.647975 0.517681
0  0.933665 3.997500 2.229810  0.572904 0.000000 0.819623  0.632635 0.517681
sword03.jpg
0  -0.028000 7.312500 2.902000  -0.572904 0.000000 0.819622  0.512506 0.640095
0  -0.989665 3.997500 2.229810  -0.572904 0.000000 0.819622  0.497166 0.580687
0  -0.028000 3.997500 2.902000  -0.572904 0.000000 0.819622  0.512506 0.580687
sword03.jpg
0  -0.989665 7.312500 2.229810  -0.971171 0.000000 0.238384  0.476445 0.640080
0  -1.388000 3.997500 0.606999  -0.971171 0.000000 0.238384  0.460248 0.580671
0  -0.989665 3.997500 2.229810  -0.971171 0.000000 0.238384  0.476445 0.580671
sword03.jpg
0  -1.388000 7.312500 0.606999  -0.971171 0.000000 -0.238384  0.685269 0.247907
0  -0.989665 3.997500 -1.015810  -0.971171 0.000000 -0.238384  0.669072 0.188498
0  -1.388000 3.997500 0.606999  -0.971171 0.000000 -0.238384  0.685269 0.188498
sword03.jpg
0  -0.989665 7.312500 -1.015810  -0.572904 0.000000 -0.819622  0.548878 0.640095
0  -0.028000 3.997500 -1.688000  -0.572904 0.000000 -0.819622  0.533538 0.580686
0  -0.989665 3.997500 -1.015810  -0.572904 0.000000 -0.819622  0.548878 0.580687
sword03.jpg
0  -0.028000 7.312500 -1.688000  0.572904 0.000000 -0.819622  0.584498 0.640095
0  0.933665 3.997500 -1.015810  0.572904 0.000000 -0.819622  0.569158 0.580687
0  -0.028000 3.997500 -1.688000  0.572904 0.000000 -0.819622  0.584498 0.580687
sword03.jpg
0  0.933665 7.312500 -1.015810  0.971171 0.000000 -0.238384  0.684914 0.561909
0  1.332000 3.997500 0.606999  0.971171 0.000000 -0.238384  0.668717 0.502500
0  0.933665 3.997500 -1.015810  0.971171 0.000000 -0.238384  0.684914 0.502500
sword03.jpg
0  1.492000 10.497499 0.606999  0.970017 -0.048729 0.238100  0.440630 0.697200
0  0.933665 7.312500 2.229810  0.970017 -0.048729 0.238100  0.423599 0.640080
0  1.332000 7.312500 0.606999  0.970017 -0.048729 0.238100  0.439796 0.640080
sword03.jpg
0  1.046802 10.497499 2.420730  0.571526 -0.069314 0.817651  0.631858 0.401147
0  -0.028000 7.312500 2.902000  0.571526 -0.069314 0.817651  0.647975 0.458272
0  0.933665 7.312500 2.229810  0.571526 -0.069314 0.817651  0.632635 0.458272
sword03.jpg
0  -0.028000 7.312500 2.902000  -0.571526 -0.069314 0.817651  0.512506 0.640095
0  -1.102802 10.497499 2.420730  -0.571526 -0.069314 0.817651  0.496389 0.697220
0  -0.989665 7.312500 2.229810  -0.571526 -0.069314 0.817651  0.497166 0.640095
sword03.jpg
0  -0.989665 7.312500 2.229810  -0.970017 -0.048729 0.238100  0.476445 0.640080
0  -1.548000 10.497499 0.606999  -0.970017 -0.048729 0.238100  0.459414 0.697200
0  -1.388000 7.312500 0.606999  -0.970017 -0.048729 0.238100  0.460248 0.640080
sword03.jpg
0  -1.548000 10.497499 0.606999  -0.970017 -0.048729 -0.238101  0.686104 0.305028
0  -0.989665 7.312500 -1.015810  -0.970017 -0.048729 -0.238101  0.669072 0.247907
0  -1.388000 7.312500 0.606999  -0.970017 -0.048729 -0.238101  0.685269 0.247907
sword03.jpg
0  -1.102802 10.497499 -1.206729  -0.571527 -0.069314 -0.817651  0.549655 0.697221
0  -0.028000 7.312500 -1.688000  -0.571527 -0.069314 -0.817651  0.533538 0.640095
0  -0.989665 7.312500 -1.015810  -0.571527 -0.069314 -0.817651  0.548878 0.640095
sword03.jpg
0  -0.028000 7.312500 -1.688000  0.571527 -0.069314 -0.817651  0.584498 0.640095
0  1.046802 10.497499 -1.206729  0.571527 -0.069314 -0.817651  0.568381 0.697221
0  0.933665 7.312500 -1.015810  0.571527 -0.069314 -0.817651  0.569158 0.640095
sword03.jpg
0  0.933665 7.312500 -1.015810  0.970017 -0.048729 -0.238101  0.684914 0.561909
0  1.492000 10.497499 0.606999  0.970017 -0.048729 -0.238101  0.667882 0.619030
0  1.332000 7.312500 0.606999  0.970017 -0.048729 -0.238101  0.668717 0.561909
sword03.jpg
0  1.442782 10.172500 2.905097  0.000000 -1.000000 0.000000  0.903967 0.147010
0  -1.498782 10.172500 -1.691097  0.000000 -1.000000 0.000000  0.861135 0.189842
0  1.442782 10.172500 -1.691097  0.000000 -1.000000 0.000000  0.861135 0.147010
sword03.jpg
0  0.763960 12.642501 -0.630437  0.000000 1.000000 0.000000  0.886333 0.628150
0  -0.819960 12.642501 1.844437  0.000000 1.000000 0.000000  0.863270 0.605086
0  0.763960 12.642501 1.844437  0.000000 1.000000 0.000000  0.886333 0.605086
sword03.jpg
0  1.725625 10.497499 3.347038  0.000000 -0.805614 0.592441  0.611122 0.608200
0  -1.498782 10.172500 2.905097  0.000000 -0.805614 0.592441  0.603988 0.655151
0  1.442782 10.172500 2.905097  0.000000 -0.805614 0.592441  0.603988 0.612319
sword03.jpg
0  -1.781625 10.497499 3.347038  -0.754336 -0.656488 0.000000  0.603988 0.521234
0  -1.498782 10.172500 -1.691097  -0.754336 -0.656488 0.000000  0.611122 0.474283
0  -1.498782 10.172500 2.905097  -0.754336 -0.656488 0.000000  0.611122 0.517115
sword03.jpg
0  -1.781625 10.497499 -2.133039  0.000000 -0.805615 -0.592439  0.603988 0.452216
0  1.442782 10.172500 -1.691097  0.000000 -0.805615 -0.592439  0.611122 0.405266
0  -1.498782 10.172500 -1.691097  0.000000 -0.805615 -0.592439  0.611122 0.448098
sword03.jpg
0  1.442782 10.172500 -1.691097  0.754336 -0.656488 0.000000  0.603988 0.543301
0  1.725625 10.497499 3.347038  0.754336 -0.656488 0.000000  0.611122 0.590252
0  1.442782 10.172500 2.905097  0.754336 -0.656488 0.000000  0.603988 0.586133
sword03.jpg
0  1.725625 11.862499 3.347038  0.000000 0.000000 1.000000  0.670862 0.784187
0  -1.781625 10.497499 3.347038  0.000000 0.000000 1.000000  0.646400 0.835256
0  1.725625 10.497499 3.347038  0.000000 0.000000 1.000000  0.646400 0.784187
sword03.jpg
0  -1.781625 11.862499 3.347038  -1.000000 0.000000 0.000000  0.603988 0.766238
0  -1.781625 10.497499 -2.133039  -1.000000 0.000000 0.000000  0.628451 0.715169
0  -1.781625 10.497499 3.347038  -1.000000 0.000000 0.000000  0.628451 0.766238
sword03.jpg
0  -1.781625 11.862499 -2.133039  0.000000 0.000000 -1.000000  0.646400 0.766238
0  1.725625 10.497499 -2.133039  0.000000 0.000000 -1.000000  0.670862 0.715169
0  -1.781625 10.497499 -2.133039  0.000000 0.000000 -1.000000  0.670862 0.766238
sword03.jpg
0  1.725625 11.862499 -2.133039  1.000000 0.000000 0.000000  0.628451 0.784187
0  1.725625 10.497499 3.347038  1.000000 0.000000 0.000000  0.603988 0.835256
0  1.725625 10.497499 -2.133039  1.000000 0.000000 0.000000  0.603988 0.784187
sword03.jpg
0  0.763960 12.642501 1.844437  0.000000 0.887542 0.460726  0.409854 0.799788
0  -1.781625 11.862499 3.347038  0.000000 0.887542 0.460726  0.390068 0.836855
0  1.725625 11.862499 3.347038  0.000000 0.887542 0.460726  0.390068 0.785786
sword03.jpg
0  -0.819960 12.642501 1.844437  -0.629935 0.776648 0.000000  0.861135 0.115058
0  -1.781625 11.862499 -2.133039  -0.629935 0.776648 0.000000  0.880920 0.077992
0  -1.781625 11.862499 3.347038  -0.629935 0.776648 0.000000  0.880920 0.129061
sword03.jpg
0  -0.819960 12.642501 -0.630437  0.000000 0.887543 -0.460726  0.540742 0.865804
0  1.725625 11.862499 -2.133039  0.000000 0.887543 -0.460726  0.560527 0.828737
0  -1.781625 11.862499 -2.133039  0.000000 0.887543 -0.460726  0.560527 0.879806
sword03.jpg
0  0.763960 12.642501 -0.630437  0.629935 0.776648 0.000000  0.880920 0.022977
0  1.725625 11.862499 3.347038  0.629935 0.776648 0.000000  0.861135 0.060043
0  1.725625 11.862499 -2.133039  0.629935 0.776648 0.000000  0.861135 0.008974
sword03.jpg
0  1.172000 -8.352500 3.732000  0.798130 -0.516058 0.310923  0.880221 0.441512
0  1.172000 -10.084680 0.857000  0.798130 -0.516058 0.310923  0.861135 0.411574
0  2.292000 -8.352500 0.857000  0.798130 -0.516058 0.310923  0.889573 0.411574
sword03.jpg
0  1.172000 -10.084680 0.857000  0.801296 -0.518105 -0.299151  0.861134 0.244183
0  1.172000 -8.352500 -2.143000  0.801296 -0.518105 -0.299151  0.861134 0.207791
0  2.292000 -8.352500 0.857000  0.801296 -0.518105 -0.299151  0.885348 0.229268
sword03.jpg
0  1.172000 -8.352500 -2.143000  0.742757 0.609442 -0.277296  0.861135 0.361259
0  1.172000 -6.987500 0.857000  0.742757 0.609442 -0.277296  0.889363 0.385408
0  2.292000 -8.352500 0.857000  0.742757 0.609442 -0.277296  0.861135 0.393625
sword03.jpg
0  1.172000 -6.987500 0.857000  0.740233 0.607370 0.288369  0.861135 0.343310
0  1.172000 -8.352500 3.732000  0.740233 0.607370 0.288369  0.861135 0.307030
0  2.292000 -8.352500 0.857000  0.740233 0.607370 0.288369  0.885472 0.326816
sword03.jpg
0  1.172000 -10.084680 0.857000  -0.987168 -0.136776 0.082407  0.682686 0.858838
0  1.172000 -8.352500 3.732000  -0.987168 -0.136776 0.082407  0.682793 0.894669
0  0.932000 -8.352500 0.857000  -0.987168 -0.136776 0.082407  0.664967 0.874376
sword03.jpg
0  1.172000 -8.352500 -2.143000  -0.987442 -0.136814 -0.078995  0.646399 0.853205
0  1.172000 -10.084680 0.857000  -0.987442 -0.136814 -0.078995  0.682686 0.858838
0  0.932000 -8.352500 0.857000  -0.987442 -0.136814 -0.078995  0.664967 0.874376
sword03.jpg
0  1.172000 -6.987500 0.857000  -0.981849 0.172633 -0.078548  0.646399 0.890687
0  1.172000 -8.352500 -2.143000  -0.981849 0.172633 -0.078548  0.646399 0.853205
0  0.932000 -8.352500 0.857000  -0.981849 0.172633 -0.078548  0.664967 0.874376
sword03.jpg
0  1.172000 -8.352500 3.732000  -0.981580 0.172586 0.081941  0.682793 0.894669
0  1.172000 -6.987500 0.857000  -0.981580 0.172586 0.081941  0.646399 0.890687
0  0.932000 -8.352500 0.857000  -0.981580 0.172586 0.081941  0.664967 0.874376
sword03.jpg
0  -0.028000 -102.178200 7.732001  0.000000 -0.641771 -0.766896  0.393876 0.767837
0  -0.348000 -99.340141 5.357000  0.000000 -0.641771 -0.766896  0.390068 0.730017
0  0.292000 -99.340141 5.357000  0.000000 -0.641771 -0.766896  0.399385 0.730227
sword03.jpg
0  -0.348000 -99.340141 5.357000  0.000000 -0.641770 -0.766897  0.390068 0.730017
0  -0.508000 -91.572830 -1.143000  0.000000 -0.641770 -0.766897  0.390068 0.626746
0  0.292000 -99.340141 5.357000  0.000000 -0.641770 -0.766897  0.399385 0.730227
sword03.jpg
0  -0.508000 -91.572830 -1.143000  0.000000 -0.641771 -0.766896  0.390068 0.626746
0  -0.268000 -83.208046 -8.143001  0.000000 -0.641771 -0.766896  0.396070 0.515666
0  0.452000 -91.572830 -1.143000  0.000000 -0.641771 -0.766896  0.404043 0.627061
sword03.jpg
0  -0.268000 -83.208046 -8.143001  0.000000 -0.641766 -0.766900  0.396070 0.515666
0  -0.028000 -80.967468 -10.018000  0.000000 -0.641766 -0.766900  0.400236 0.485970
0  0.212000 -83.208046 -8.143001  0.000000 -0.641766 -0.766900  0.403058 0.515823
sword03.jpg
0  0.452000 -91.572830 -1.143000  0.000000 -0.641771 -0.766897  0.404043 0.627061
0  -0.268000 -83.208046 -8.143001  0.000000 -0.641771 -0.766897  0.396070 0.515666
0  0.212000 -83.208046 -8.143001  0.000000 -0.641771 -0.766897  0.403058 0.515823
sword03.jpg
0  -0.700000 -11.166861 4.482000  0.000000 1.000000 0.000000  0.560552 0.791238
0  -0.028000 -11.166861 6.857001  0.000000 1.000000 0.000000  0.546292 0.810789
0  0.644000 -11.166861 4.482000  0.000000 1.000000 0.000000  0.541428 0.787083
sword03.jpg
0  0.644000 -11.166861 4.482000  0.000000 1.000000 0.000000  0.541428 0.787083
0  1.092000 -11.166861 1.607000  0.000000 1.000000 0.000000  0.540742 0.759517
0  -0.700000 -11.166861 4.482000  0.000000 1.000000 0.000000  0.560552 0.791238
sword03.jpg
0  1.092000 -11.166861 1.607000  0.000000 1.000000 0.000000  0.540742 0.759517
0  0.588000 -11.166861 -2.018000  0.000000 1.000000 0.000000  0.555084 0.728063
0  -1.148000 -11.166861 1.607000  0.000000 1.000000 0.000000  0.572615 0.766441
sword03.jpg
0  -0.700000 -11.166861 4.482000  0.000000 1.000000 0.000001  0.560552 0.791238
0  1.092000 -11.166861 1.607000  0.000000 1.000000 0.000001  0.540742 0.759517
0  -1.148000 -11.166861 1.607000  0.000000 1.000000 0.000001  0.572615 0.766441
sword03.jpg
0  0.588000 -11.166861 -2.018000  0.000000 1.000000 0.000000  0.555084 0.728063
0  -0.028000 -11.166861 -3.643000  0.000000 1.000000 0.000000  0.567064 0.715169
0  -0.644000 -11.166861 -2.018000  0.000000 1.000000 0.000000  0.572615 0.731872
sword03.jpg
0  0.292000 -99.340141 5.357000  0.939745 -0.002058 0.341870  0.337335 0.959836
0  0.836000 -79.344200 3.982001  0.939745 -0.002058 0.341870  0.327124 0.743759
0  -0.028000 -79.344200 6.357000  0.939745 -0.002058 0.341870  0.352583 0.744097
sword03.jpg
0  0.452000 -91.572830 -1.143000  0.992378 -0.072825 0.099410  0.277498 0.875171
0  1.412000 -79.344200 -1.768000  0.992378 -0.072825 0.099410  0.273117 0.742838
0  0.836000 -79.344200 3.982001  0.992378 -0.072825 0.099410  0.327124 0.743759
sword03.jpg
0  0.212000 -83.208046 -8.143001  0.984717 -0.143855 -0.098169  0.211334 0.784527
0  0.764000 -79.344200 -8.268000  0.984717 -0.143855 -0.098169  0.212566 0.742083
0  1.412000 -79.344200 -1.768000  0.984717 -0.143855 -0.098169  0.273117 0.742838
sword03.jpg
0  -0.028000 -80.967468 -10.018000  0.898405 0.033718 -0.437872  0.193113 0.760042
0  -0.028000 -79.344200 -9.893000  0.898405 0.033718 -0.437872  0.193640 0.742275
0  0.764000 -79.344200 -8.268000  0.898405 0.033718 -0.437872  0.212566 0.742083
sword03.jpg
0  -0.028000 -80.967468 -10.018000  -0.944939 -0.144495 -0.293619  0.008974 0.239958
0  -0.268000 -83.208046 -8.143001  -0.944939 -0.144495 -0.293619  0.027195 0.215473
0  -0.820000 -79.344200 -8.268000  -0.944939 -0.144495 -0.293619  0.028428 0.257917
sword03.jpg
0  -0.268000 -83.208046 -8.143001  -0.987287 -0.084390 -0.134694  0.027195 0.215473
0  -0.508000 -91.572830 -1.143000  -0.987287 -0.084390 -0.134694  0.093360 0.124829
0  -1.468000 -79.344200 -1.768000  -0.987287 -0.084390 -0.134694  0.088979 0.257162
sword03.jpg
0  -0.508000 -91.572830 -1.143000  -0.999577 -0.027785 -0.008598  0.093360 0.124829
0  -0.348000 -99.340141 5.357000  -0.999577 -0.027785 -0.008598  0.153196 0.040164
0  -0.892000 -79.344200 3.982001  -0.999577 -0.027785 -0.008598  0.142986 0.256241
sword03.jpg
0  -0.348000 -99.340141 5.357000  -0.989588 0.008652 0.143672  0.153196 0.040164
0  -0.028000 -102.178200 7.732001  -0.989588 0.008652 0.143672  0.175164 0.008974
0  -0.028000 -79.344200 6.357000  -0.989588 0.008652 0.143672  0.168445 0.255903
sword03.jpg
0  0.836000 -79.344200 3.982001  0.945726 0.004680 0.324932  0.327124 0.743759
0  0.788000 -52.289700 3.732000  0.945726 0.004680 0.324932  0.326495 0.453160
0  -0.028000 -52.289700 6.106999  0.945726 0.004680 0.324932  0.351627 0.453242
sword03.jpg
0  0.836000 -79.344200 3.982001  0.995019 -0.001433 0.099675  0.327124 0.743759
0  1.412000 -79.344200 -1.768000  0.995019 -0.001433 0.099675  0.273117 0.742838
0  1.332000 -52.289700 -0.580500  0.995019 -0.001433 0.099675  0.285517 0.453019
sword03.jpg
0  1.412000 -79.344200 -1.768000  0.995005 0.011243 -0.099194  0.273117 0.742838
0  0.764000 -79.344200 -8.268000  0.995005 0.011243 -0.099194  0.212566 0.742083
0  0.720000 -52.289700 -5.643000  0.995005 0.011243 -0.099194  0.237395 0.452791
sword03.jpg
0  0.764000 -79.344200 -8.268000  0.898106 0.042471 -0.437723  0.212566 0.742083
0  -0.028000 -79.344200 -9.893000  0.898106 0.042471 -0.437723  0.193640 0.742275
0  -0.028000 -52.289700 -7.268000  0.898106 0.042471 -0.437723  0.218643 0.452430
sword03.jpg
0  -0.820000 -79.344200 -8.268000  -0.907582 0.042010 -0.417767  0.028428 0.257917
0  -0.776000 -52.289700 -5.643000  -0.907582 0.042010 -0.417767  0.053256 0.547209
0  -0.028000 -52.289700 -7.268000  -0.907582 0.042010 -0.417767  0.034505 0.547570
sword03.jpg
0  -1.468000 -79.344200 -1.768000  -0.992739 0.008203 -0.120011  0.088979 0.257162
0  -1.388000 -52.289700 -0.580500  -0.992739 0.008203 -0.120011  0.101378 0.546981
0  -0.776000 -52.289700 -5.643000  -0.992739 0.008203 -0.120011  0.053256 0.547209
sword03.jpg
0  -0.892000 -79.344200 3.982001  -0.992133 0.002917 0.125153  0.142986 0.256241
0  -0.844000 -52.289700 3.732000  -0.992133 0.002917 0.125153  0.142357 0.546840
0  -1.388000 -52.289700 -0.580500  -0.992133 0.002917 0.125153  0.101378 0.546981
sword03.jpg
0  -0.892000 -79.344200 3.982001  -0.939742 0.003159 0.341869  0.142986 0.256241
0  -0.028000 -79.344200 6.357000  -0.939742 0.003159 0.341869  0.168445 0.255903
0  -0.028000 -52.289700 6.106999  -0.939742 0.003159 0.341869  0.167489 0.546758
sword03.jpg
0  -0.028000 -52.289700 6.106999  0.945733 -0.002614 0.324934  0.351627 0.453242
0  0.788000 -52.289700 3.732000  0.945733 -0.002614 0.324934  0.326495 0.453160
0  0.644000 -11.166861 4.482000  0.945733 -0.002614 0.324934  0.335051 0.009566
sword03.jpg
0  0.788000 -52.289700 3.732000  0.992137 -0.000867 0.125153  0.326495 0.453160
0  1.332000 -52.289700 -0.580500  0.992137 -0.000867 0.125153  0.285517 0.453019
0  1.092000 -11.166861 1.607000  0.992137 -0.000867 0.125153  0.307423 0.009485
sword03.jpg
0  1.332000 -52.289700 -0.580500  0.992678 0.013765 -0.120004  0.285517 0.453019
0  0.720000 -52.289700 -5.643000  0.992678 0.013765 -0.120004  0.237395 0.452791
0  0.588000 -11.166861 -2.018000  0.992678 0.013765 -0.120004  0.272771 0.009264
sword03.jpg
0  0.720000 -52.289700 -5.643000  0.907768 0.036834 -0.417853  0.237395 0.452791
0  -0.028000 -52.289700 -7.268000  0.907768 0.036834 -0.417853  0.218643 0.452430
0  -0.028000 -11.166861 -3.643000  0.907768 0.036834 -0.417853  0.255136 0.008974
sword03.jpg
0  -0.776000 -52.289700 -5.643000  -0.934522 0.034228 -0.354256  0.053256 0.547209
0  -0.644000 -11.166861 -2.018000  -0.934522 0.034228 -0.354256  0.088633 0.990736
0  -0.028000 -11.166861 -3.643000  -0.934522 0.034228 -0.354256  0.070997 0.991026
sword03.jpg
0  -1.388000 -52.289700 -0.580500  -0.990387 0.013105 -0.137698  0.101378 0.546981
0  -1.148000 -11.166861 1.607000  -0.990387 0.013105 -0.137698  0.123285 0.990516
0  -0.644000 -11.166861 -2.018000  -0.990387 0.013105 -0.137698  0.088633 0.990736
sword03.jpg
0  -0.844000 -52.289700 3.732000  -0.988076 0.000652 0.153968  0.142357 0.546840
0  -0.700000 -11.166861 4.482000  -0.988076 0.000652 0.153968  0.150912 0.990434
0  -1.148000 -11.166861 1.607000  -0.988076 0.000652 0.153968  0.123285 0.990516
sword03.jpg
0  -0.028000 -52.289700 6.106999  -0.962212 -0.004965 0.272255  0.167489 0.546758
0  -0.028000 -11.166861 6.857001  -0.962212 -0.004965 0.272255  0.175164 0.990364
0  -0.700000 -11.166861 4.482000  -0.962212 -0.004965 0.272255  0.150912 0.990434
sword03.jpg
0  -1.228000 -15.329160 15.373858  -0.810944 -0.539869 0.225636  0.433311 0.744279
0  -1.228000 -16.505684 12.558839  -0.810944 -0.539869 0.225636  0.433311 0.715149
0  -0.948000 -16.845966 12.750991  -0.810944 -0.539869 0.225636  0.427545 0.715169
sword03.jpg
0  -0.948000 -12.481097 9.799155  -0.834490 -0.270948 -0.479805  0.823698 0.831354
0  -0.948000 -16.670357 12.164846  -0.834490 -0.270948 -0.479805  0.783870 0.861901
0  -1.228000 -16.505684 12.558839  -0.834490 -0.270948 -0.479805  0.787363 0.866489
sword03.jpg
0  -1.228000 -10.438893 6.916572  -0.812418 -0.527246 -0.248977  0.845321 0.803718
0  -0.948000 -11.023577 7.241080  -0.812418 -0.527246 -0.248977  0.837673 0.806343
0  -0.948000 -11.959450 9.222921  -0.812418 -0.527246 -0.248977  0.828592 0.825319
sword03.jpg
0  -1.228000 -11.147166 3.644132  -0.806232 -0.578211 0.125146  0.841261 0.772547
0  -0.948000 -11.491513 3.857000  -0.806232 -0.578211 0.125146  0.835676 0.774309
0  -0.948000 -10.934070 6.432564  -0.806232 -0.578211 0.125146  0.838871 0.798842
sword03.jpg
0  -0.948000 -13.401091 1.430724  -0.820735 -0.448942 0.353335  0.821523 0.747226
0  -0.948000 -11.491513 3.857000  -0.820735 -0.448942 0.353335  0.835676 0.774309
0  -1.228000 -11.147166 3.644132  -0.820735 -0.448942 0.353335  0.841261 0.772547
sword03.jpg
0  -1.228000 -11.582758 -1.822964  -0.814677 -0.507256 -0.281058  0.837557 0.713898
0  -0.948000 -11.924386 -2.018000  -0.814677 -0.507256 -0.281058  0.832008 0.712266
0  -0.948000 -13.451700 0.738506  -0.814677 -0.507256 -0.281058  0.821144 0.740764
sword03.jpg
0  -0.948000 -11.188082 -4.356841  -0.808320 -0.561572 -0.176792  0.836797 0.689574
0  -0.948000 -11.924386 -2.018000  -0.808320 -0.561572 -0.176792  0.832008 0.712266
0  -1.228000 -11.582758 -1.822964  -0.808320 -0.561572 -0.176792  0.837557 0.713898
sword03.jpg
0  -1.228000 -11.717153 -7.782792  -0.809283 -0.553718 0.196108  0.832894 0.656932
0  -0.948000 -12.032604 -7.518000  -0.809283 -0.553718 0.196108  0.827855 0.659907
0  -0.948000 -11.202055 -5.172927  -0.809283 -0.553718 0.196108  0.836212 0.681990
sword03.jpg
0  -0.948000 -14.846272 -10.268000  -0.825711 -0.394284 0.403413  0.802155 0.629681
0  -0.948000 -12.032604 -7.518000  -0.825711 -0.394284 0.403413  0.827855 0.659907
0  -1.228000 -11.717153 -7.782792  -0.825711 -0.394284 0.403413  0.832894 0.656932
sword03.jpg
0  -1.228000 -16.381584 -12.561121  -0.823469 -0.419826 0.381635  0.790260 0.605086
0  -0.948000 -16.844574 -12.466276  -0.823469 -0.419826 0.381635  0.783870 0.606272
0  -0.948000 -14.846272 -10.268000  -0.823469 -0.419826 0.381635  0.802155 0.629681
sword03.jpg
0  -0.948000 -10.448230 -15.020252  -0.839071 -0.174030 -0.515435  0.608300 0.039984
0  -0.948000 -16.755301 -12.890748  -0.839071 -0.174030 -0.515435  0.544729 0.008974
0  -1.228000 -16.381584 -12.561121  -0.839071 -0.174030 -0.515435  0.544897 0.015472
sword03.jpg
0  -0.948000 -6.173367 -8.452359  -0.830977 0.483106 -0.275837  0.648211 0.121470
0  -0.948000 -9.816854 -14.833641  -0.830977 0.483106 -0.275837  0.613200 0.045004
0  -1.228000 -10.193817 -14.650343  -0.830977 0.483106 -0.275837  0.607266 0.045894
sword03.jpg
0  -1.228000 -6.240000 -1.050157  -0.630592 0.776114 0.000000  0.638744 0.190239
0  -0.948000 -6.012500 -1.143000  -0.630592 0.776114 0.000000  0.644561 0.189844
0  -0.948000 -6.012500 -7.705500  -0.630592 0.776114 0.000000  0.649516 0.128889
sword03.jpg
0  -0.948000 -5.584897 0.707208  -0.654772 0.736416 -0.170194  0.648619 0.208271
0  -0.948000 -6.012500 -1.143000  -0.654772 0.736416 -0.170194  0.644561 0.189844
0  -1.228000 -6.240000 -1.050157  -0.654772 0.736416 -0.170194  0.638744 0.190239
sword03.jpg
0  -1.228000 -6.172346 3.900130  -0.642678 0.756719 0.119759  0.636887 0.238103
0  -0.948000 -5.947500 3.982001  -0.642678 0.756719 0.119759  0.642584 0.239098
0  -0.948000 -5.558739 1.525546  -0.642678 0.756719 0.119759  0.648494 0.215910
sword03.jpg
0  -0.948000 -6.124595 8.295857  -0.631451 0.774763 0.031806  0.638716 0.279238
0  -0.948000 -5.947500 3.982001  -0.631451 0.774763 0.031806  0.642584 0.239098
0  -1.228000 -6.172346 3.900130  -0.631451 0.774763 0.031806  0.636887 0.238103
sword03.jpg
0  -1.228000 -15.329160 15.373858  -0.827745 0.343262 0.443857  0.544729 0.379173
0  -0.948000 -15.164781 15.768905  -0.827745 0.343262 0.443857  0.548864 0.383198
0  -0.948000 -6.341190 8.945091  -0.827745 0.343262 0.443857  0.635834 0.285823
sword03.jpg
0  1.172000 -15.329160 15.373858  0.810942 -0.539871 0.225637  0.667465 0.666109
0  0.892000 -15.660246 15.588009  0.810942 -0.539871 0.225637  0.673231 0.666357
0  0.892000 -16.845964 12.750991  0.810942 -0.539871 0.225637  0.673231 0.636999
sword03.jpg
0  1.172000 -15.329160 15.373858  0.814018 0.354475 0.460133  0.526780 0.379173
0  1.172000 -6.359705 8.464011  0.814018 0.354475 0.460133  0.438714 0.280570
0  0.892000 -6.341190 8.945091  0.814018 0.354475 0.460133  0.435675 0.285823
sword03.jpg
0  0.892000 -6.124595 8.295857  0.631453 0.774762 0.031806  0.432793 0.279238
0  1.172000 -6.359705 8.464011  0.631453 0.774762 0.031806  0.438714 0.280570
0  1.172000 -6.172346 3.900130  0.631453 0.774762 0.031806  0.434621 0.238103
sword03.jpg
0  1.172000 -6.172346 3.900130  0.642680 0.756717 0.119759  0.434621 0.238103
0  1.172000 -5.734837 1.135646  0.642680 0.756717 0.119759  0.427970 0.212008
0  0.892000 -5.558739 1.525546  0.642680 0.756717 0.119759  0.423015 0.215910
sword03.jpg
0  0.892000 -5.584897 0.707208  0.654772 0.736416 -0.170194  0.422890 0.208271
0  1.172000 -5.734837 1.135646  0.654772 0.736416 -0.170194  0.427970 0.212008
0  1.172000 -6.240000 -1.050157  0.654772 0.736416 -0.170194  0.432765 0.190239
sword03.jpg
0  1.172000 -6.240000 -1.050157  0.630593 0.776114 0.000000  0.432765 0.190239
0  1.172000 -6.240000 -7.961782  0.630593 0.776114 0.000000  0.427546 0.126042
0  0.892000 -6.012500 -7.705500  0.630593 0.776114 0.000000  0.421992 0.128889
sword03.jpg
0  0.892000 -6.173367 -8.452359  0.738851 0.580095 -0.342912  0.423297 0.121470
0  1.172000 -6.240000 -7.961782  0.738851 0.580095 -0.342912  0.427546 0.126042
0  1.172000 -10.193817 -14.650343  0.738851 0.580095 -0.342912  0.464243 0.045894
sword03.jpg
0  0.892000 -10.448230 -15.020252  0.839069 -0.174031 -0.515438  0.463208 0.039984
0  1.172000 -10.193817 -14.650343  0.839069 -0.174031 -0.515438  0.464243 0.045894
0  1.172000 -16.381584 -12.561121  0.839069 -0.174031 -0.515438  0.526612 0.015472
sword03.jpg
0  1.172000 -16.381584 -12.561121  0.823469 -0.419826 0.381635  0.759531 0.605086
0  1.172000 -14.593115 -10.593676  0.823469 -0.419826 0.381635  0.743166 0.626038
0  0.892000 -14.846272 -10.268000  0.823469 -0.419826 0.381635  0.747636 0.629681
sword03.jpg
0  0.892000 -14.846272 -10.268000  0.825709 -0.394286 0.403415  0.747636 0.629681
0  1.172000 -14.593115 -10.593676  0.825709 -0.394286 0.403415  0.743166 0.626038
0  1.172000 -11.717153 -7.782792  0.825709 -0.394286 0.403415  0.716897 0.656932
sword03.jpg
0  1.172000 -11.717153 -7.782792  0.809282 -0.553718 0.196109  0.716897 0.656932
0  1.172000 -10.652695 -4.777272  0.809282 -0.553718 0.196109  0.706185 0.685235
0  0.892000 -11.202055 -5.172927  0.809282 -0.553718 0.196109  0.713578 0.681990
sword03.jpg
0  0.892000 -11.188082 -4.356841  0.808320 -0.561572 -0.176792  0.712994 0.689574
0  1.172000 -10.652695 -4.777272  0.808320 -0.561572 -0.176792  0.706185 0.685235
0  1.172000 -11.582758 -1.822964  0.808320 -0.561572 -0.176792  0.712234 0.713898
sword03.jpg
0  1.172000 -11.582758 -1.822964  0.814676 -0.507256 -0.281058  0.712234 0.713898
0  1.172000 -13.180488 1.060628  0.814676 -0.507256 -0.281058  0.723599 0.743710
0  0.892000 -13.451700 0.738506  0.814676 -0.507256 -0.281058  0.728647 0.740764
sword03.jpg
0  0.892000 -13.401091 1.430724  0.820735 -0.448941 0.353335  0.728267 0.747226
0  1.172000 -13.180488 1.060628  0.820735 -0.448941 0.353335  0.723599 0.743710
0  1.172000 -11.147166 3.644132  0.820735 -0.448941 0.353335  0.708529 0.772547
sword03.jpg
0  1.172000 -11.147166 3.644132  0.806232 -0.578211 0.125145  0.708529 0.772547
0  1.172000 -10.438893 6.916572  0.806232 -0.578211 0.125145  0.704470 0.803718
0  0.892000 -10.934070 6.432564  0.806232 -0.578211 0.125145  0.710919 0.798842
sword03.jpg
0  1.172000 -10.438893 6.916572  0.812417 -0.527246 -0.248979  0.704470 0.803718
0  1.172000 -11.866079 9.938837  0.812417 -0.527246 -0.248979  0.718318 0.832657
0  0.892000 -11.959450 9.222921  0.812417 -0.527246 -0.248979  0.721198 0.825319
sword03.jpg
0  0.892000 -12.481097 9.799155  0.834492 -0.270946 -0.479803  0.726092 0.831354
0  1.172000 -11.866079 9.938837  0.834492 -0.270946 -0.479803  0.718318 0.832657
0  1.172000 -16.505684 12.558839  0.834492 -0.270946 -0.479803  0.762428 0.866489
sword03.jpg
0  -0.948000 -15.164781 15.768905  -0.000000 -0.342960 0.939350  0.861135 0.587138
0  -0.948000 -15.660247 15.588009  -0.000000 -0.342960 0.939350  0.866728 0.587138
0  0.892000 -15.660246 15.588009  -0.000000 -0.342960 0.939350  0.866728 0.560345
sword03.jpg
0  -0.948000 -6.341190 8.945091  0.000000 0.948603 0.316469  0.377251 0.337462
0  0.892000 -6.341190 8.945091  0.000000 0.948603 0.316469  0.404043 0.337462
0  0.892000 -6.124595 8.295857  0.000000 0.948603 0.316469  0.404043 0.330273
sword03.jpg
0  -0.948000 -5.558739 1.525546  0.000000 0.999489 -0.031948  0.377251 0.266019
0  0.892000 -5.558739 1.525546  0.000000 0.999489 -0.031948  0.404043 0.266019
0  0.892000 -5.584897 0.707208  0.000000 0.999489 -0.031948  0.404043 0.258378
sword03.jpg
0  -0.948000 -6.012500 -7.705500  0.000000 0.977580 -0.210563  0.377251 0.178354
0  0.892000 -6.012500 -7.705500  0.000000 0.977580 -0.210563  0.404043 0.178354
0  0.892000 -6.173367 -8.452359  0.000000 0.977580 -0.210563  0.404043 0.170820
sword03.jpg
0  -0.948000 -9.816854 -14.833641  0.000000 0.283442 -0.958990  0.377251 0.086721
0  0.892000 -9.816854 -14.833641  0.000000 0.283442 -0.958990  0.404043 0.086721
0  0.892000 -10.448230 -15.020252  0.000000 0.283442 -0.958990  0.404043 0.079706
sword03.jpg
0  -0.948000 -16.844574 -12.466276  0.000000 -0.978592 -0.205811  0.433311 0.762476
0  -0.948000 -16.755301 -12.890748  0.000000 -0.978592 -0.205811  0.429240 0.762476
0  0.892000 -16.755301 -12.890748  0.000000 -0.978592 -0.205811  0.429240 0.789268
sword03.jpg
0  -0.948000 -11.202055 -5.172927  0.000000 -0.999853 0.017120  0.478052 0.808140
0  0.892000 -11.202055 -5.172927  0.000000 -0.999853 0.017120  0.451260 0.808140
0  0.892000 -11.188082 -4.356841  0.000000 -0.999853 0.017120  0.451260 0.815746
sword03.jpg
0  -0.948000 -13.451700 0.738506  0.000000 -0.997338 0.072917  0.867608 0.288924
0  0.892000 -13.451700 0.738506  0.000000 -0.997338 0.072917  0.867608 0.262131
0  0.892000 -13.401091 1.430724  0.000000 -0.997338 0.072917  0.861135 0.262131
sword03.jpg
0  -0.948000 -10.934070 6.432564  0.000000 -0.993928 -0.110032  0.522793 0.770467
0  0.892000 -10.934070 6.432564  0.000000 -0.993928 -0.110032  0.496001 0.770467
0  0.892000 -11.023577 7.241080  0.000000 -0.993928 -0.110032  0.496001 0.778063
sword03.jpg
0  -0.948000 -11.959450 9.222921  0.000000 -0.741347 -0.671122  0.522793 0.799100
0  0.892000 -11.959450 9.222921  0.000000 -0.741347 -0.671122  0.496001 0.799100
0  0.892000 -12.481097 9.799155  0.000000 -0.741347 -0.671122  0.496001 0.806870
sword03.jpg
0  -0.948000 -16.670357 12.164846  0.000000 -0.957933 -0.286993  0.861135 0.506768
0  0.892000 -16.670357 12.164846  0.000000 -0.957933 -0.286993  0.861135 0.533560
0  0.892000 -16.845964 12.750991  0.000000 -0.957933 -0.286993  0.866915 0.533560
sword03.jpg
0  0.892000 -16.845964 12.750991  0.000001 -0.922658 0.385620  0.861135 0.459461
0  0.892000 -15.660246 15.588009  0.000001 -0.922658 0.385620  0.861135 0.488819
0  -0.948000 -15.660247 15.588009  0.000001 -0.922658 0.385620  0.887927 0.488819
sword03.jpg
0  -1.228000 -11.866079 9.938837  -1.000000 0.000000 0.000000  0.754271 0.238221
0  -1.228000 -16.505684 12.558839  -1.000000 0.000000 0.000000  0.704470 0.262921
0  -1.228000 -15.329160 15.373858  -1.000000 0.000000 0.000000  0.717283 0.289082
sword03.jpg
0  -1.228000 -15.329160 15.373858  -1.000000 0.000000 0.000000  0.717283 0.289082
0  -1.228000 -6.359705 8.464011  -1.000000 0.000000 0.000000  0.832377 0.224031
0  -1.228000 -11.866079 9.938837  -1.000000 0.000000 0.000000  0.754271 0.238221
sword03.jpg
0  -1.228000 -6.359705 8.464011  -1.000000 0.000000 0.000000  0.832377 0.224031
0  -1.228000 -6.172346 3.900130  -1.000000 0.000000 0.000000  0.835492 0.181481
0  -1.228000 -10.438893 6.916572  -1.000000 0.000000 0.000000  0.769472 0.209969
sword03.jpg
0  -1.228000 -11.866079 9.938837  -1.000000 0.000000 0.000000  0.754271 0.238221
0  -1.228000 -6.359705 8.464011  -1.000000 0.000000 0.000000  0.832377 0.224031
0  -1.228000 -10.438893 6.916572  -1.000000 0.000000 0.000000  0.769472 0.209969
sword03.jpg
0  -1.228000 -6.172346 3.900130  -1.000000 0.000000 0.000000  0.835492 0.181481
0  -1.228000 -5.734837 1.135646  -1.000000 0.000000 0.000000  0.843186 0.155675
0  -1.228000 -11.147166 3.644132  -1.000000 0.000000 0.000000  0.761675 0.179517
sword03.jpg
0  -1.228000 -5.734837 1.135646  -1.000000 -0.000000 0.000000  0.843186 0.155675
0  -1.228000 -6.240000 -1.050157  -1.000000 -0.000000 0.000000  0.834017 0.135357
0  -1.228000 -11.147166 3.644132  -1.000000 -0.000000 0.000000  0.761675 0.179517
sword03.jpg
0  -1.228000 -6.240000 -1.050157  -1.000000 0.000000 0.000000  0.834017 0.135357
0  -1.228000 -6.240000 -7.961782  -1.000000 0.000000 0.000000  0.833649 0.070949
0  -1.228000 -10.652695 -4.777272  -1.000000 0.000000 0.000000  0.766549 0.101008
sword03.jpg
0  -1.228000 -6.240000 -7.961782  -1.000000 0.000000 0.000000  0.833649 0.070949
0  -1.228000 -10.193817 -14.650343  -1.000000 0.000000 0.000000  0.770964 0.008974
0  -1.228000 -11.717153 -7.782792  -1.000000 0.000000 0.000000  0.754932 0.073066
sword03.jpg
0  -1.228000 -10.193817 -14.650343  -1.000000 -0.000000 0.000000  0.770964 0.008974
0  -1.228000 -16.381584 -12.561121  -1.000000 -0.000000 0.000000  0.704469 0.028824
0  -1.228000 -14.593115 -10.593676  -1.000000 -0.000000 0.000000  0.723825 0.047048
sword03.jpg
0  -1.228000 -10.193817 -14.650343  -1.000000 0.000000 0.000000  0.770964 0.008974
0  -1.228000 -14.593115 -10.593676  -1.000000 0.000000 0.000000  0.723825 0.047048
0  -1.228000 -11.717153 -7.782792  -1.000000 0.000000 0.000000  0.754932 0.073066
sword03.jpg
0  -1.228000 -6.240000 -7.961782  -1.000000 0.000000 0.000000  0.833649 0.070949
0  -1.228000 -11.717153 -7.782792  -1.000000 0.000000 0.000000  0.754932 0.073066
0  -1.228000 -10.652695 -4.777272  -1.000000 0.000000 0.000000  0.766549 0.101008
sword03.jpg
0  -1.228000 -6.240000 -1.050157  -1.000000 0.000000 0.000000  0.834017 0.135357
0  -1.228000 -10.652695 -4.777272  -1.000000 0.000000 0.000000  0.766549 0.101008
0  -1.228000 -11.582758 -1.822964  -1.000000 0.000000 0.000000  0.756695 0.128596
sword03.jpg
0  -1.228000 -11.147166 3.644132  -1.000000 0.000000 0.000000  0.761675 0.179517
0  -1.228000 -10.438893 6.916572  -1.000000 0.000000 0.000000  0.769472 0.209969
0  -1.228000 -6.172346 3.900130  -1.000000 0.000000 0.000000  0.835492 0.181481
sword03.jpg
0  -1.228000 -11.582758 -1.822964  -1.000000 0.000000 0.000000  0.756695 0.128596
0  -1.228000 -13.180488 1.060628  -1.000000 0.000000 0.000000  0.739650 0.155566
0  -1.228000 -11.147166 3.644132  -1.000000 0.000000 0.000000  0.761675 0.179517
sword03.jpg
0  -0.948000 -15.164781 15.768905  0.000000 0.611761 0.791043  0.377251 0.468021
0  0.892000 -15.164782 15.768905  0.000000 0.611761 0.791043  0.404043 0.468021
0  0.892000 -6.341190 8.945091  0.000000 0.611761 0.791043  0.404043 0.337462
sword03.jpg
0  0.892000 -6.124595 8.295857  0.000000 0.999158 0.041018  0.404043 0.330273
0  0.892000 -5.947500 3.982001  0.000000 0.999158 0.041018  0.404043 0.289947
0  -0.948000 -5.947500 3.982001  0.000000 0.999158 0.041018  0.377251 0.289947
sword03.jpg
0  0.892000 -5.947500 3.982001  0.000000 0.987707 0.156315  0.404043 0.289947
0  0.892000 -5.558739 1.525546  0.000000 0.987707 0.156315  0.404043 0.266019
0  -0.948000 -5.558739 1.525546  0.000000 0.987707 0.156315  0.377251 0.266019
sword03.jpg
0  0.892000 -5.584897 0.707208  0.000000 0.974318 -0.225176  0.404043 0.258378
0  0.892000 -6.012500 -1.143000  0.000000 0.974318 -0.225176  0.404043 0.239510
0  -0.948000 -6.012500 -1.143000  0.000000 0.974318 -0.225176  0.377251 0.239510
sword03.jpg
0  0.892000 -6.012500 -1.143000  0.000000 1.000000 0.000000  0.404043 0.239510
0  0.892000 -6.012500 -7.705500  0.000000 1.000000 0.000000  0.404043 0.178354
0  -0.948000 -6.012500 -7.705500  0.000000 1.000000 0.000000  0.377251 0.178354
sword03.jpg
0  0.892000 -6.173367 -8.452359  0.000000 0.868417 -0.495835  0.404043 0.170820
0  0.892000 -9.816854 -14.833641  0.000000 0.868417 -0.495835  0.404043 0.086721
0  -0.948000 -9.816854 -14.833641  0.000000 0.868417 -0.495835  0.377251 0.086721
sword03.jpg
0  0.892000 -10.448230 -15.020252  0.000000 -0.319896 -0.947453  0.404043 0.079706
0  0.892000 -16.755301 -12.890748  0.000000 -0.319896 -0.947453  0.404043 0.008974
0  -0.948000 -16.755301 -12.890748  0.000000 -0.319896 -0.947453  0.377251 0.008974
sword03.jpg
0  0.892000 -16.844574 -12.466276  0.000000 -0.739962 0.672648  0.451260 0.715149
0  0.892000 -14.846272 -10.268000  0.000000 -0.739962 0.672648  0.451260 0.744853
0  -0.948000 -14.846272 -10.268000  0.000000 -0.739962 0.672648  0.478052 0.744854
sword03.jpg
0  0.892000 -14.846272 -10.268000  0.000000 -0.698969 0.715152  0.451260 0.744853
0  0.892000 -12.032604 -7.518000  0.000000 -0.698969 0.715152  0.451260 0.784528
0  -0.948000 -12.032604 -7.518000  0.000000 -0.698969 0.715152  0.478052 0.784528
sword03.jpg
0  0.892000 -12.032604 -7.518000  0.000000 -0.942627 0.333848  0.451260 0.784528
0  0.892000 -11.202055 -5.172927  0.000000 -0.942627 0.333848  0.451260 0.808140
0  -0.948000 -11.202055 -5.172927  0.000000 -0.942627 0.333848  0.478052 0.808140
sword03.jpg
0  0.892000 -11.188082 -4.356841  0.000000 -0.953849 -0.300286  0.451260 0.815746
0  0.892000 -11.924386 -2.018000  0.000000 -0.953849 -0.300286  0.451260 0.838938
0  -0.948000 -11.924386 -2.018000  0.000000 -0.953849 -0.300286  0.478052 0.838938
sword03.jpg
0  0.892000 -11.924386 -2.018000  0.000000 -0.874706 -0.484654  0.451260 0.838938
0  0.892000 -13.451700 0.738506  0.000000 -0.874706 -0.484654  0.451260 0.869437
0  -0.948000 -13.451700 0.738506  0.000000 -0.874706 -0.484654  0.478052 0.869437
sword03.jpg
0  0.892000 -13.401091 1.430724  0.000000 -0.785811 0.618466  0.496001 0.715169
0  0.892000 -11.491513 3.857000  0.000000 -0.785811 0.618466  0.496001 0.745727
0  -0.948000 -11.491513 3.857000  0.000000 -0.785811 0.618466  0.522793 0.745727
sword03.jpg
0  0.892000 -11.491513 3.857000  0.000000 -0.977370 0.211538  0.496001 0.745727
0  0.892000 -10.934070 6.432564  0.000000 -0.977370 0.211538  0.496001 0.770467
0  -0.948000 -10.934070 6.432564  0.000000 -0.977370 0.211538  0.522793 0.770467
sword03.jpg
0  0.892000 -11.023577 7.241080  0.000000 -0.904248 -0.427008  0.496001 0.778063
0  0.892000 -11.959450 9.222921  0.000000 -0.904248 -0.427008  0.496001 0.799100
0  -0.948000 -11.959450 9.222921  0.000000 -0.904248 -0.427008  0.522793 0.799100
sword03.jpg
0  0.892000 -12.481097 9.799155  0.000000 -0.491719 -0.870754  0.496001 0.806870
0  0.892000 -16.670357 12.164846  0.000000 -0.491719 -0.870754  0.496001 0.857064
0  -0.948000 -16.670357 12.164846  0.000000 -0.491719 -0.870754  0.522793 0.857064
sword03.jpg
0  1.172000 -6.359705 8.464011  1.000000 -0.000000 0.000000  0.715278 0.522087
0  1.172000 -15.329160 15.373858  1.000000 -0.000000 0.000000  0.830372 0.587138
0  1.172000 -11.866079 9.938837  1.000000 -0.000000 0.000000  0.793384 0.536277
sword03.jpg
0  1.172000 -15.329160 15.373858  1.000000 -0.000000 0.000000  0.830372 0.587138
0  1.172000 -16.505684 12.558839  1.000000 -0.000000 0.000000  0.843186 0.560977
0  1.172000 -11.866079 9.938837  1.000000 -0.000000 0.000000  0.793384 0.536277
sword03.jpg
0  1.172000 -6.240000 -1.050157  1.000000 -0.000000 0.000000  0.713639 0.433413
0  1.172000 -5.734837 1.135646  1.000000 -0.000000 0.000000  0.704469 0.453731
0  1.172000 -11.147166 3.644132  1.000000 -0.000000 0.000000  0.785981 0.477573
sword03.jpg
0  1.172000 -5.734837 1.135646  1.000000 0.000000 0.000000  0.704469 0.453731
0  1.172000 -6.172346 3.900130  1.000000 0.000000 0.000000  0.712163 0.479537
0  1.172000 -11.147166 3.644132  1.000000 0.000000 0.000000  0.785981 0.477573
sword03.jpg
0  1.172000 -6.172346 3.900130  1.000000 0.000000 0.000000  0.712163 0.479537
0  1.172000 -6.359705 8.464011  1.000000 0.000000 0.000000  0.715278 0.522087
0  1.172000 -10.438893 6.916572  1.000000 0.000000 0.000000  0.778183 0.508025
sword03.jpg
0  1.172000 -6.359705 8.464011  1.000000 0.000000 0.000000  0.715278 0.522087
0  1.172000 -11.866079 9.938837  1.000000 0.000000 0.000000  0.793384 0.536277
0  1.172000 -10.438893 6.916572  1.000000 0.000000 0.000000  0.778183 0.508025
sword03.jpg
0  1.172000 -10.193817 -14.650343  1.000000 -0.000000 0.000000  0.776692 0.307030
0  1.172000 -6.240000 -7.961782  1.000000 -0.000000 0.000000  0.714006 0.369005
0  1.172000 -11.717153 -7.782792  1.000000 -0.000000 0.000000  0.792724 0.371122
sword03.jpg
0  1.172000 -6.240000 -7.961782  1.000000 0.000000 0.000000  0.714006 0.369005
0  1.172000 -6.240000 -1.050157  1.000000 0.000000 0.000000  0.713639 0.433413
0  1.172000 -10.652695 -4.777272  1.000000 0.000000 0.000000  0.781106 0.399064
sword03.jpg
0  1.172000 -6.172346 3.900130  1.000000 0.000000 0.000000  0.712163 0.479537
0  1.172000 -10.438893 6.916572  1.000000 0.000000 0.000000  0.778183 0.508025
0  1.172000 -11.147166 3.644132  1.000000 0.000000 0.000000  0.785981 0.477573
sword03.jpg
0  1.172000 -11.147166 3.644132  1.000000 0.000000 0.000000  0.785981 0.477573
0  1.172000 -13.180488 1.060628  1.000000 0.000000 0.000000  0.808005 0.453622
0  1.172000 -11.582758 -1.822964  1.000000 0.000000 0.000000  0.790960 0.426652
sword03.jpg
0  1.172000 -14.593115 -10.593676  1.000000 0.000000 0.000000  0.823830 0.345104
0  1.172000 -16.381584 -12.561121  1.000000 0.000000 0.000000  0.843186 0.326880
0  1.172000 -10.193817 -14.650343  1.000000 0.000000 0.000000  0.776692 0.307030
sword03.jpg
0  1.172000 -11.717153 -7.782792  1.000000 0.000000 0.000000  0.792724 0.371122
0  1.172000 -14.593115 -10.593676  1.000000 0.000000 0.000000  0.823830 0.345104
0  1.172000 -10.193817 -14.650343  1.000000 0.000000 0.000000  0.776692 0.307030
sword03.jpg
0  1.172000 -6.240000 -1.050157  1.000000 0.000000 0.000000  0.713639 0.433413
0  1.172000 -11.147166 3.644132  1.000000 0.000000 0.000000  0.785981 0.477573
0  1.172000 -11.582758 -1.822964  1.000000 0.000000 0.000000  0.790960 0.426652
sword03.jpg
0  1.172000 -10.652695 -4.777272  1.000000 -0.000000 0.000000  0.781106 0.399064
0  1.172000 -11.717153 -7.782792  1.000000 -0.000000 0.000000  0.792724 0.371122
0  1.172000 -6.240000 -7.961782  1.000000 -0.000000 0.000000  0.714006 0.369005
sword03.jpg
0  -0.028000 -6.012500 -2.093000  0.000000 -1.000000 0.000000  0.597688 0.853205
0  1.103371 -6.012500 -1.302189  0.000000 -1.000000 0.000000  0.615708 0.854186
0  -1.159371 -6.012500 -1.302189  0.000000 -1.000000 0.000000  0.584946 0.865985
sword03.jpg
0  1.103371 -6.012500 -1.302189  0.000000 -1.000000 0.000001  0.615708 0.854186
0  1.572000 -6.012500 0.606999  0.000000 -1.000000 0.000001  0.628451 0.868355
0  -1.628000 -6.012500 0.606999  0.000000 -1.000000 0.000001  0.584946 0.885040
sword03.jpg
0  1.572000 -6.012500 0.606999  0.000000 -1.000000 -0.000001  0.628451 0.868355
0  1.103371 -6.012500 2.516188  0.000000 -1.000000 -0.000001  0.628451 0.887410
0  -1.628000 -6.012500 0.606999  0.000000 -1.000000 -0.000001  0.584946 0.885040
sword03.jpg
0  1.103371 -6.012500 2.516188  0.000000 -1.000000 0.000000  0.628451 0.887410
0  -0.028000 -6.012500 3.307000  0.000000 -1.000000 0.000000  0.615708 0.900190
0  -1.159371 -6.012500 2.516188  0.000000 -1.000000 0.000000  0.597688 0.899209
sword03.jpg
0  -1.628000 -6.012500 0.606999  0.000000 -1.000000 0.000000  0.584946 0.885040
0  1.103371 -6.012500 2.516188  0.000000 -1.000000 0.000000  0.628451 0.887410
0  -1.159371 -6.012500 2.516188  0.000000 -1.000000 0.000000  0.597688 0.899209
sword03.jpg
0  1.046802 10.497499 2.420730  0.000000 1.000000 -0.000001  0.402174 0.898507
0  1.492000 10.497499 0.606999  0.000000 1.000000 -0.000001  0.390068 0.885047
0  -1.548000 10.497499 0.606999  0.000000 1.000000 -0.000001  0.431398 0.869196
sword03.jpg
0  1.492000 10.497499 0.606999  0.000000 1.000000 -0.000001  0.390068 0.885047
0  1.046802 10.497499 -1.206729  0.000000 1.000000 -0.000001  0.390068 0.866944
0  -1.102802 10.497499 -1.206729  0.000000 1.000000 -0.000001  0.419293 0.855736
sword03.jpg
0  1.046802 10.497499 -1.206729  0.000000 1.000000 0.000000  0.390068 0.866944
0  -0.028000 10.497499 -1.958000  0.000000 1.000000 0.000000  0.402174 0.854803
0  -1.102802 10.497499 -1.206729  0.000000 1.000000 0.000000  0.419293 0.855736
sword03.jpg
0  -1.102802 10.497499 -1.206729  0.000000 1.000000 0.000001  0.419293 0.855736
0  -1.548000 10.497499 0.606999  0.000000 1.000000 0.000001  0.431398 0.869196
0  1.492000 10.497499 0.606999  0.000000 1.000000 0.000001  0.390068 0.885047
sword03.jpg
0  -1.548000 10.497499 0.606999  0.000000 1.000000 0.000001  0.431398 0.869196
0  -1.102802 10.497499 2.420730  0.000000 1.000000 0.000001  0.431398 0.887298
0  1.046802 10.497499 2.420730  0.000000 1.000000 0.000001  0.402174 0.898507
sword03.jpg
0  1.572000 -6.012500 0.606999  0.961709 0.139252 0.236061  0.441048 0.401147
0  1.412000 -4.907500 0.606999  0.961709 0.139252 0.236061  0.440213 0.421069
0  0.990234 -4.907500 2.325269  0.961709 0.139252 0.236061  0.423063 0.421069
sword03.jpg
0  1.103371 -6.012500 2.516188  0.561750 0.196371 0.803664  0.631469 0.697220
0  0.990234 -4.907500 2.325269  0.561750 0.196371 0.803664  0.632247 0.677285
0  -0.028000 -4.907500 3.037001  0.561750 0.196371 0.803664  0.648489 0.677285
sword03.jpg
0  -0.028000 -4.907500 3.037001  -0.561750 0.196371 0.803664  0.513020 0.421083
0  -1.046234 -4.907500 2.325269  -0.561750 0.196371 0.803664  0.496778 0.421083
0  -1.159371 -6.012500 2.516188  -0.561750 0.196371 0.803664  0.496001 0.401147
sword03.jpg
0  -1.046234 -4.907500 2.325269  -0.961709 0.139252 0.236061  0.476981 0.421069
0  -1.468000 -4.907500 0.606999  -0.961709 0.139252 0.236061  0.459831 0.421069
0  -1.628000 -6.012500 0.606999  -0.961709 0.139252 0.236061  0.458996 0.401147
sword03.jpg
0  -1.628000 -6.012500 0.606999  -0.961709 0.139252 -0.236061  0.686521 0.008974
0  -1.468000 -4.907500 0.606999  -0.961709 0.139252 -0.236061  0.685686 0.028896
0  -1.046234 -4.907500 -1.111269  -0.961709 0.139252 -0.236061  0.668537 0.028896
sword03.jpg
0  -1.159371 -6.012500 -1.302189  -0.561750 0.196371 -0.803664  0.550044 0.401147
0  -1.046234 -4.907500 -1.111269  -0.561750 0.196371 -0.803664  0.549266 0.421083
0  -0.028000 -4.907500 -1.823000  -0.561750 0.196371 -0.803664  0.533024 0.421083
sword03.jpg
0  -0.028000 -4.907500 -1.823000  0.561750 0.196371 -0.803664  0.585012 0.421083
0  0.990234 -4.907500 -1.111269  0.561750 0.196371 -0.803664  0.568770 0.421083
0  1.103371 -6.012500 -1.302189  0.561750 0.196371 -0.803664  0.567992 0.401147
sword03.jpg
0  0.990234 -4.907500 -1.111269  0.961709 0.139252 -0.236061  0.685449 0.342898
0  1.412000 -4.907500 0.606999  0.961709 0.139252 -0.236061  0.668299 0.342898
0  1.572000 -6.012500 0.606999  0.961709 0.139252 -0.236061  0.667465 0.322976
sword03.jpg
0  1.412000 -4.907500 0.606999  0.970665 0.032288 0.238259  0.440213 0.421069
0  1.332000 -2.502500 0.606999  0.970665 0.032288 0.238259  0.439796 0.464184
0  0.933665 -2.502500 2.229810  0.970665 0.032288 0.238259  0.423599 0.464184
sword03.jpg
0  0.990234 -4.907500 2.325269  0.572299 0.045959 0.818756  0.632247 0.677285
0  0.933665 -2.502500 2.229810  0.572299 0.045959 0.818756  0.632635 0.634169
0  -0.028000 -2.502500 2.902000  0.572299 0.045959 0.818756  0.647975 0.634169
sword03.jpg
0  -0.028000 -2.502500 2.902000  -0.572299 0.045959 0.818756  0.512506 0.464199
0  -0.989665 -2.502500 2.229810  -0.572299 0.045959 0.818756  0.497166 0.464199
0  -1.046234 -4.907500 2.325269  -0.572299 0.045959 0.818756  0.496778 0.421083
sword03.jpg
0  -0.989665 -2.502500 2.229810  -0.970665 0.032288 0.238259  0.476445 0.464184
0  -1.388000 -2.502500 0.606999  -0.970665 0.032288 0.238259  0.460248 0.464184
0  -1.468000 -4.907500 0.606999  -0.970665 0.032288 0.238259  0.459831 0.421069
sword03.jpg
0  -1.468000 -4.907500 0.606999  -0.970665 0.032288 -0.238260  0.685686 0.028896
0  -1.388000 -2.502500 0.606999  -0.970665 0.032288 -0.238260  0.685269 0.072011
0  -0.989665 -2.502500 -1.015810  -0.970665 0.032288 -0.238260  0.669072 0.072011
sword03.jpg
0  -1.046234 -4.907500 -1.111269  -0.572299 0.045959 -0.818756  0.549266 0.421083
0  -0.989665 -2.502500 -1.015810  -0.572299 0.045959 -0.818756  0.548878 0.464199
0  -0.028000 -2.502500 -1.688000  -0.572299 0.045959 -0.818756  0.533538 0.464199
sword03.jpg
0  -0.028000 -2.502500 -1.688000  0.572299 0.045959 -0.818756  0.584498 0.464199
0  0.933665 -2.502500 -1.015810  0.572299 0.045959 -0.818756  0.569158 0.464199
0  0.990234 -4.907500 -1.111269  0.572299 0.045959 -0.818756  0.568770 0.421083
sword03.jpg
0  0.933665 -2.502500 -1.015810  0.970665 0.032288 -0.238259  0.684914 0.386013
0  1.332000 -2.502500 0.606999  0.970665 0.032288 -0.238259  0.668717 0.386013
0  1.412000 -4.907500 0.606999  0.970665 0.032288 -0.238259  0.668299 0.342898
sword03.jpg
0  1.332000 0.747501 0.606999  0.971171 0.000000 0.238383  0.439796 0.522427
0  0.933665 0.747501 2.229810  0.971171 0.000000 0.238383  0.423599 0.522427
0  0.933665 -2.502500 2.229810  0.971171 0.000000 0.238383  0.423599 0.464184
sword03.jpg
0  0.933665 0.747501 2.229810  0.572904 0.000000 0.819623  0.632635 0.575925
0  -0.028000 0.747501 2.902000  0.572904 0.000000 0.819623  0.647975 0.575925
0  -0.028000 -2.502500 2.902000  0.572904 0.000000 0.819623  0.647975 0.634169
sword03.jpg
0  -0.028000 0.747501 2.902000  -0.572904 0.000000 0.819623  0.512506 0.522443
0  -0.989665 0.747501 2.229810  -0.572904 0.000000 0.819623  0.497166 0.522443
0  -0.989665 -2.502500 2.229810  -0.572904 0.000000 0.819623  0.497166 0.464199
sword03.jpg
0  -0.989665 0.747501 2.229810  -0.971171 0.000000 0.238383  0.476445 0.522427
0  -1.388000 0.747501 0.606999  -0.971171 0.000000 0.238383  0.460248 0.522427
0  -1.388000 -2.502500 0.606999  -0.971171 0.000000 0.238383  0.460248 0.464184
sword03.jpg
0  -1.388000 0.747501 0.606999  -0.971171 0.000000 -0.238384  0.685269 0.130255
0  -0.989665 0.747501 -1.015810  -0.971171 0.000000 -0.238384  0.669072 0.130255
0  -0.989665 -2.502500 -1.015810  -0.971171 0.000000 -0.238384  0.669072 0.072011
sword03.jpg
0  -0.989665 0.747501 -1.015810  -0.572905 0.000000 -0.819622  0.548878 0.522443
0  -0.028000 0.747501 -1.688000  -0.572905 0.000000 -0.819622  0.533538 0.522443
0  -0.028000 -2.502500 -1.688000  -0.572905 0.000000 -0.819622  0.533538 0.464199
sword03.jpg
0  -0.028000 0.747501 -1.688000  0.572904 0.000000 -0.819622  0.584498 0.522443
0  0.933665 0.747501 -1.015810  0.572904 0.000000 -0.819622  0.569158 0.522443
0  0.933665 -2.502500 -1.015810  0.572904 0.000000 -0.819622  0.569158 0.464199
sword03.jpg
0  0.933665 0.747501 -1.015810  0.971171 0.000000 -0.238384  0.684914 0.444257
0  1.332000 0.747501 0.606999  0.971171 0.000000 -0.238384  0.668717 0.444257
0  1.332000 -2.502500 0.606999  0.971171 0.000000 -0.238384  0.668717 0.386013
sword03.jpg
0  1.332000 3.997500 0.606999  0.971171 0.000000 0.238383  0.439796 0.580671
0  0.933665 3.997500 2.229810  0.971171 0.000000 0.238383  0.423599 0.580671
0  0.933665 0.747501 2.229810  0.971171 0.000000 0.238383  0.423599 0.522427
sword03.jpg
0  0.933665 3.997500 2.229810  0.572904 0.000000 0.819623  0.632635 0.517681
0  -0.028000 3.997500 2.902000  0.572904 0.000000 0.819623  0.647975 0.517681
0  -0.028000 0.747501 2.902000  0.572904 0.000000 0.819623  0.647975 0.575925
sword03.jpg
0  -0.028000 3.997500 2.902000  -0.572904 0.000000 0.819623  0.512506 0.580687
0  -0.989665 3.997500 2.229810  -0.572904 0.000000 0.819623  0.497166 0.580687
0  -0.989665 0.747501 2.229810  -0.572904 0.000000 0.819623  0.497166 0.522443
sword03.jpg
0  -0.989665 3.997500 2.229810  -0.971171 0.000000 0.238383  0.476445 0.580671
0  -1.388000 3.997500 0.606999  -0.971171 0.000000 0.238383  0.460248 0.580671
0  -1.388000 0.747501 0.606999  -0.971171 0.000000 0.238383  0.460248 0.522427
sword03.jpg
0  -1.388000 3.997500 0.606999  -0.971171 0.000000 -0.238384  0.685269 0.188498
0  -0.989665 3.997500 -1.015810  -0.971171 0.000000 -0.238384  0.669072 0.188498
0  -0.989665 0.747501 -1.015810  -0.971171 0.000000 -0.238384  0.669072 0.130255
sword03.jpg
0  -0.989665 3.997500 -1.015810  -0.572904 0.000000 -0.819622  0.548878 0.580687
0  -0.028000 3.997500 -1.688000  -0.572904 0.000000 -0.819622  0.533538 0.580686
0  -0.028000 0.747501 -1.688000  -0.572904 0.000000 -0.819622  0.533538 0.522443
sword03.jpg
0  -0.028000 3.997500 -1.688000  0.572904 0.000000 -0.819622  0.584498 0.580687
0  0.933665 3.997500 -1.015810  0.572904 0.000000 -0.819622  0.569158 0.580687
0  0.933665 0.747501 -1.015810  0.572904 0.000000 -0.819622  0.569158 0.522443
sword03.jpg
0  0.933665 3.997500 -1.015810  0.971171 0.000000 -0.238384  0.684914 0.502500
0  1.332000 3.997500 0.606999  0.971171 0.000000 -0.238384  0.668717 0.502500
0  1.332000 0.747501 0.606999  0.971171 0.000000 -0.238384  0.668717 0.444257
sword03.jpg
0  1.332000 7.312500 0.606999  0.971171 0.000000 0.238383  0.439796 0.640080
0  0.933665 7.312500 2.229810  0.971171 0.000000 0.238383  0.423599 0.640080
0  0.933665 3.997500 2.229810  0.971171 0.000000 0.238383  0.423599 0.580671
sword03.jpg
0  0.933665 7.312500 2.229810  0.572904 0.000000 0.819622  0.632635 0.458272
0  -0.028000 7.312500 2.902000  0.572904 0.000000 0.819622  0.647975 0.458272
0  -0.028000 3.997500 2.902000  0.572904 0.000000 0.819622  0.647975 0.517681
sword03.jpg
0  -0.028000 7.312500 2.902000  -0.572904 0.000000 0.819623  0.512506 0.640095
0  -0.989665 7.312500 2.229810  -0.572904 0.000000 0.819623  0.497166 0.640095
0  -0.989665 3.997500 2.229810  -0.572904 0.000000 0.819623  0.497166 0.580687
sword03.jpg
0  -0.989665 7.312500 2.229810  -0.971171 0.000000 0.238383  0.476445 0.640080
0  -1.388000 7.312500 0.606999  -0.971171 0.000000 0.238383  0.460248 0.640080
0  -1.388000 3.997500 0.606999  -0.971171 0.000000 0.238383  0.460248 0.580671
sword03.jpg
0  -1.388000 7.312500 0.606999  -0.971171 0.000000 -0.238384  0.685269 0.247907
0  -0.989665 7.312500 -1.015810  -0.971171 0.000000 -0.238384  0.669072 0.247907
0  -0.989665 3.997500 -1.015810  -0.971171 0.000000 -0.238384  0.669072 0.188498
sword03.jpg
0  -0.989665 7.312500 -1.015810  -0.572905 0.000000 -0.819622  0.548878 0.640095
0  -0.028000 7.312500 -1.688000  -0.572905 0.000000 -0.819622  0.533538 0.640095
0  -0.028000 3.997500 -1.688000  -0.572905 0.000000 -0.819622  0.533538 0.580686
sword03.jpg
0  -0.028000 7.312500 -1.688000  0.572905 0.000000 -0.819622  0.584498 0.640095
0  0.933665 7.312500 -1.015810  0.572905 0.000000 -0.819622  0.569158 0.640095
0  0.933665 3.997500 -1.015810  0.572905 0.000000 -0.819622  0.569158 0.580687
sword03.jpg
0  0.933665 7.312500 -1.015810  0.971171 0.000000 -0.238384  0.684914 0.561909
0  1.332000 7.312500 0.606999  0.971171 0.000000 -0.238384  0.668717 0.561909
0  1.332000 3.997500 0.606999  0.971171 0.000000 -0.238384  0.668717 0.502500
sword03.jpg
0  1.492000 10.497499 0.606999  0.970017 -0.048729 0.238100  0.440630 0.697200
0  1.046802 10.497499 2.420730  0.970017 -0.048729 0.238100  0.422528 0.697200
0  0.933665 7.312500 2.229810  0.970017 -0.048729 0.238100  0.423599 0.640080
sword03.jpg
0  1.046802 10.497499 2.420730  0.571525 -0.069314 0.817652  0.631858 0.401147
0  -0.028000 10.497499 3.172000  0.571525 -0.069314 0.817652  0.649003 0.401147
0  -0.028000 7.312500 2.902000  0.571525 -0.069314 0.817652  0.647975 0.458272
sword03.jpg
0  -0.028000 7.312500 2.902000  -0.571525 -0.069314 0.817652  0.512506 0.640095
0  -0.028000 10.497499 3.172000  -0.571525 -0.069314 0.817652  0.513534 0.697221
0  -1.102802 10.497499 2.420730  -0.571525 -0.069314 0.817652  0.496389 0.697220
sword03.jpg
0  -0.989665 7.312500 2.229810  -0.970017 -0.048729 0.238100  0.476445 0.640080
0  -1.102802 10.497499 2.420730  -0.970017 -0.048729 0.238100  0.477516 0.697200
0  -1.548000 10.497499 0.606999  -0.970017 -0.048729 0.238100  0.459414 0.697200
sword03.jpg
0  -1.548000 10.497499 0.606999  -0.970017 -0.048729 -0.238100  0.686104 0.305028
0  -1.102802 10.497499 -1.206729  -0.970017 -0.048729 -0.238100  0.668001 0.305028
0  -0.989665 7.312500 -1.015810  -0.970017 -0.048729 -0.238100  0.669072 0.247907
sword03.jpg
0  -1.102802 10.497499 -1.206729  -0.571526 -0.069314 -0.817651  0.549655 0.697221
0  -0.028000 10.497499 -1.958000  -0.571526 -0.069314 -0.817651  0.532510 0.697221
0  -0.028000 7.312500 -1.688000  -0.571526 -0.069314 -0.817651  0.533538 0.640095
sword03.jpg
0  -0.028000 7.312500 -1.688000  0.571526 -0.069314 -0.817651  0.584498 0.640095
0  -0.028000 10.497499 -1.958000  0.571526 -0.069314 -0.817651  0.585526 0.697221
0  1.046802 10.497499 -1.206729  0.571526 -0.069314 -0.817651  0.568381 0.697221
sword03.jpg
0  0.933665 7.312500 -1.015810  0.970017 -0.048729 -0.238100  0.684914 0.561909
0  1.046802 10.497499 -1.206729  0.970017 -0.048729 -0.238100  0.685985 0.619030
0  1.492000 10.497499 0.606999  0.970017 -0.048729 -0.238100  0.667882 0.619030
sword03.jpg
0  1.442782 10.172500 2.905097  0.000000 -1.000000 0.000000  0.903967 0.147010
0  -1.498782 10.172500 2.905097  0.000000 -1.000000 0.000000  0.903967 0.189842
0  -1.498782 10.172500 -1.691097  0.000000 -1.000000 0.000000  0.861135 0.189842
sword03.jpg
0  0.763960 12.642501 -0.630437  0.000000 1.000000 0.000000  0.886333 0.628150
0  -0.819960 12.642501 -0.630437  0.000000 1.000000 0.000000  0.863270 0.628150
0  -0.819960 12.642501 1.844437  0.000000 1.000000 0.000000  0.863270 0.605086
sword03.jpg
0  1.725625 10.497499 3.347038  0.000000 -0.805611 0.592445  0.611122 0.608200
0  -1.781625 10.497499 3.347038  0.000000 -0.805611 0.592445  0.611122 0.659269
0  -1.498782 10.172500 2.905097  0.000000 -0.805611 0.592445  0.603988 0.655151
sword03.jpg
0  -1.781625 10.497499 3.347038  -0.754336 -0.656488 0.000000  0.603988 0.521234
0  -1.781625 10.497499 -2.133039  -0.754336 -0.656488 0.000000  0.603988 0.470165
0  -1.498782 10.172500 -1.691097  -0.754336 -0.656488 0.000000  0.611122 0.474283
sword03.jpg
0  -1.781625 10.497499 -2.133039  0.000000 -0.805612 -0.592443  0.603988 0.452216
0  1.725625 10.497499 -2.133039  0.000000 -0.805612 -0.592443  0.603988 0.401147
0  1.442782 10.172500 -1.691097  0.000000 -0.805612 -0.592443  0.611122 0.405266
sword03.jpg
0  1.442782 10.172500 -1.691097  0.754336 -0.656488 0.000000  0.603988 0.543301
0  1.725625 10.497499 -2.133039  0.754336 -0.656488 0.000000  0.611122 0.539183
0  1.725625 10.497499 3.347038  0.754336 -0.656488 0.000000  0.611122 0.590252
sword03.jpg
0  1.725625 11.862499 3.347038  0.000000 0.000000 1.000000  0.670862 0.784187
0  -1.781625 11.862499 3.347038  0.000000 0.000000 1.000000  0.670862 0.835256
0  -1.781625 10.497499 3.347038  0.000000 0.000000 1.000000  0.646400 0.835256
sword03.jpg
0  -1.781625 11.862499 3.347038  -1.000000 0.000000 0.000000  0.603988 0.766238
0  -1.781625 11.862499 -2.133039  -1.000000 0.000000 0.000000  0.603988 0.715169
0  -1.781625 10.497499 -2.133039  -1.000000 0.000000 0.000000  0.628451 0.715169
sword03.jpg
0  -1.781625 11.862499 -2.133039  0.000000 0.000000 -1.000000  0.646400 0.766238
0  1.725625 11.862499 -2.133039  0.000000 0.000000 -1.000000  0.646400 0.715169
0  1.725625 10.497499 -2.133039  0.000000 0.000000 -1.000000  0.670862 0.715169
sword03.jpg
0  1.725625 11.862499 -2.133039  1.000000 0.000000 0.000000  0.628451 0.784187
0  1.725625 11.862499 3.347038  1.000000 0.000000 0.000000  0.628451 0.835256
0  1.725625 10.497499 3.347038  1.000000 0.000000 0.000000  0.603988 0.835256
sword03.jpg
0  0.763960 12.642501 1.844437  0.000000 0.887544 0.460723  0.409854 0.799788
0  -0.819960 12.642501 1.844437  0.000000 0.887544 0.460723  0.409854 0.822852
0  -1.781625 11.862499 3.347038  0.000000 0.887544 0.460723  0.390068 0.836855
sword03.jpg
0  -0.819960 12.642501 1.844437  -0.629935 0.776648 0.000000  0.861135 0.115058
0  -0.819960 12.642501 -0.630437  -0.629935 0.776648 0.000000  0.861135 0.091995
0  -1.781625 11.862499 -2.133039  -0.629935 0.776648 0.000000  0.880920 0.077992
sword03.jpg
0  -0.819960 12.642501 -0.630437  0.000000 0.887544 -0.460723  0.540742 0.865804
0  0.763960 12.642501 -0.630437  0.000000 0.887544 -0.460723  0.540742 0.842740
0  1.725625 11.862499 -2.133039  0.000000 0.887544 -0.460723  0.560527 0.828737
sword03.jpg
0  0.763960 12.642501 -0.630437  0.629935 0.776648 0.000000  0.880920 0.022977
0  0.763960 12.642501 1.844437  0.629935 0.776648 0.000000  0.880920 0.046041
0  1.725625 11.862499 3.347038  0.629935 0.776648 0.000000  0.861135 0.060043
end
