version 1
nodes
0 "Box06" -1
end
skeleton
time 0
0 -0.056140 -50.012932 0.000000 0.000000 0.000000 0.000000
end
triangles
deep_wall12.jpg
0 -150.056107 -85.522400 262.769989 0.000000 0.000000 1.000000 -0.409700 0.017200
0 -83.556099 -85.522400 262.769989 0.000000 0.000000 1.000000 -0.006400 0.017200
0 -83.556099 -14.600502 262.769989 0.000000 0.000000 1.000000 -0.006400 0.409300
deep_wall12.jpg
0 -83.556099 -14.600502 262.769989 0.000000 0.000000 1.000000 -0.006400 0.409300
0 -150.056107 -14.600502 262.769989 0.000000 0.000000 1.000000 -0.409700 0.409300
0 -150.056107 -85.522400 262.769989 0.000000 0.000000 1.000000 -0.409700 0.017200
deep_wall12.jpg
0 -83.556099 -88.604401 291.606201 0.000000 0.001700 0.999999 -0.006400 0.000100
0 83.443901 -88.604401 291.606201 0.000000 0.001700 0.999999 1.006400 0.000100
0 83.443901 -11.708702 291.471985 0.000000 0.001700 0.999999 1.006400 0.425300
deep_wall12.jpg
0 83.443901 -11.708702 291.471985 0.000000 0.001700 0.999999 1.006400 0.425300
0 -83.556099 -11.708702 291.471985 0.000000 0.001700 0.999999 -0.006400 0.425300
0 -83.556099 -88.604401 291.606201 0.000000 0.001700 0.999999 -0.006400 0.000100
deep_wall12.jpg
0 83.443901 -85.522400 262.769989 0.000000 0.000000 1.000000 1.006400 0.017200
0 149.943893 -85.522400 262.769989 0.000000 0.000000 1.000000 1.409700 0.017200
0 149.943893 -14.600399 262.769989 0.000000 0.000000 1.000000 1.409700 0.409300
deep_wall12.jpg
0 149.943893 -14.600399 262.769989 0.000000 0.000000 1.000000 1.409700 0.409300
0 83.443901 -14.600399 262.769989 0.000000 0.000000 1.000000 1.006400 0.409300
0 83.443901 -85.522400 262.769989 0.000000 0.000000 1.000000 1.006400 0.017200
deep_wall12.jpg
0 -150.056107 -100.012901 0.000000 0.000000 -0.989666 0.143395 1.169300 0.964400
0 -83.556099 -100.012901 0.000000 0.000000 -0.989666 0.143395 0.872600 0.964400
0 -83.556099 -85.522400 100.000000 0.000000 -0.989666 0.143395 0.872600 0.675500
deep_wall12.jpg
0 -83.556099 -85.522400 100.000000 0.000000 -0.989666 0.143395 0.872600 0.675500
0 -150.056107 -85.522400 100.000000 0.000000 -0.989666 0.143395 1.169300 0.675500
0 -150.056107 -100.012901 0.000000 0.000000 -0.989666 0.143395 1.169300 0.964400
deep_wall12.jpg
0 -83.556099 -100.012901 0.000000 0.000000 -0.989666 0.143395 0.872600 0.964400
0 83.443901 -100.012901 0.000000 0.000000 -0.989666 0.143395 0.127400 0.964400
0 83.443901 -85.522400 100.000000 0.000000 -0.989666 0.143395 0.127400 0.675500
deep_wall12.jpg
0 83.443901 -85.522400 100.000000 0.000000 -0.989666 0.143395 0.127400 0.675500
0 -83.556099 -85.522400 100.000000 0.000000 -0.989666 0.143395 0.872600 0.675500
0 -83.556099 -100.012901 0.000000 0.000000 -0.989666 0.143395 0.872600 0.964400
deep_wall12.jpg
0 83.443901 -100.012901 0.000000 0.000000 -0.989666 0.143395 0.127400 0.964400
0 149.943893 -100.012901 0.000000 0.000000 -0.989666 0.143395 -0.169300 0.964400
0 149.943893 -85.522400 100.000000 0.000000 -0.989666 0.143395 -0.169300 0.675500
deep_wall12.jpg
0 149.943893 -85.522400 100.000000 0.000000 -0.989666 0.143395 -0.169300 0.675500
0 83.443901 -85.522400 100.000000 0.000000 -0.989666 0.143395 0.127400 0.675500
0 83.443901 -100.012901 0.000000 0.000000 -0.989666 0.143395 0.127400 0.964400
deep_wall12.jpg
0 -150.056107 -85.522400 100.000000 0.324406 -0.945918 0.000000 1.169300 0.675500
0 -83.556099 -62.716099 100.000000 0.324406 -0.945918 0.000000 0.872600 0.739400
0 -83.556099 -62.716099 200.000000 0.324406 -0.945918 0.000000 0.872600 0.409900
deep_wall12.jpg
0 -83.556099 -62.716099 200.000000 0.324406 -0.945918 0.000000 0.872600 0.409900
0 -150.056107 -85.522400 200.000000 0.324406 -0.945918 0.000000 1.169300 0.346000
0 -150.056107 -85.522400 100.000000 0.324406 -0.945918 0.000000 1.169300 0.675500
deep_wall12.jpg
0 -65.804199 -108.800301 110.629898 0.000000 -1.000000 0.000000 0.793400 0.575300
0 65.691902 -108.800301 110.629898 0.000000 -1.000000 0.000000 0.206600 0.575300
0 65.691902 -108.800301 189.370102 0.000000 -1.000000 0.000000 0.206600 0.315900
deep_wall12.jpg
0 65.691902 -108.800301 189.370102 0.000000 -1.000000 0.000000 0.206600 0.315900
0 -65.804199 -108.800301 189.370102 0.000000 -1.000000 0.000000 0.793400 0.315900
0 -65.804199 -108.800301 110.629898 0.000000 -1.000000 0.000000 0.793400 0.575300
deep_wall12.jpg
0 83.443901 -62.716099 100.000000 -0.324406 -0.945918 0.000000 0.127400 0.739400
0 149.943893 -85.522400 100.000000 -0.324406 -0.945918 0.000000 -0.169300 0.675500
0 149.943893 -85.522400 200.000000 -0.324406 -0.945918 0.000000 -0.169300 0.346000
deep_wall12.jpg
0 149.943893 -85.522400 200.000000 -0.324406 -0.945918 0.000000 -0.169300 0.346000
0 83.443901 -62.716099 200.000000 -0.324406 -0.945918 0.000000 0.127400 0.409900
0 83.443901 -62.716099 100.000000 -0.324406 -0.945918 0.000000 0.127400 0.739400
deep_wall12.jpg
0 -150.056107 -85.522400 200.000000 0.000000 -1.000000 0.000000 1.169300 0.346000
0 -83.556099 -85.522400 200.000000 0.000000 -1.000000 0.000000 0.872600 0.346000
0 -83.556099 -85.522400 262.769989 0.000000 -1.000000 0.000000 0.872600 0.139200
deep_wall12.jpg
0 -83.556099 -85.522400 262.769989 0.000000 -1.000000 0.000000 0.872600 0.139200
0 -150.056107 -85.522400 262.769989 0.000000 -1.000000 0.000000 1.169300 0.139200
0 -150.056107 -85.522400 200.000000 0.000000 -1.000000 0.000000 1.169300 0.346000
deep_wall12.jpg
0 -83.556099 -103.686501 215.384201 0.000000 -0.980982 0.194097 0.872600 0.244500
0 83.443901 -103.686501 215.384201 0.000000 -0.980982 0.194097 0.127400 0.244500
0 83.443901 -88.604401 291.606201 0.000000 -0.980982 0.194097 0.127400 0.035600
deep_wall12.jpg
0 83.443901 -88.604401 291.606201 0.000000 -0.980982 0.194097 0.127400 0.035600
0 -83.556099 -88.604401 291.606201 0.000000 -0.980982 0.194097 0.872600 0.035600
0 -83.556099 -103.686501 215.384201 0.000000 -0.980982 0.194097 0.872600 0.244500
deep_wall12.jpg
0 83.443901 -85.522400 200.000000 0.000000 -1.000000 0.000000 0.127400 0.346000
0 149.943893 -85.522400 200.000000 0.000000 -1.000000 0.000000 -0.169300 0.346000
0 149.943893 -85.522400 262.769989 0.000000 -1.000000 0.000000 -0.169300 0.139200
deep_wall12.jpg
0 149.943893 -85.522400 262.769989 0.000000 -1.000000 0.000000 -0.169300 0.139200
0 83.443901 -85.522400 262.769989 0.000000 -1.000000 0.000000 0.127400 0.139200
0 83.443901 -85.522400 200.000000 0.000000 -1.000000 0.000000 0.127400 0.346000
deep_wall12.jpg
0 149.943893 -100.012901 0.000000 1.000000 0.000000 0.000000 0.604000 0.030200
0 149.943893 -0.012901 0.000000 1.000000 0.000000 0.000000 0.604000 0.590800
0 149.943893 -14.600399 100.000000 1.000000 0.000000 0.000000 0.018900 0.509000
deep_wall12.jpg
0 149.943893 -14.600399 100.000000 1.000000 0.000000 0.000000 0.018900 0.509000
0 149.943893 -85.522400 100.000000 1.000000 0.000000 0.000000 0.018900 0.111400
0 149.943893 -100.012901 0.000000 1.000000 0.000000 0.000000 0.604000 0.030200
deep_wall12.jpg
0 149.943893 -85.522400 100.000000 1.000000 0.000000 0.000000 0.018900 0.111400
0 149.943893 -14.600399 100.000000 1.000000 0.000000 0.000000 0.018900 0.509000
0 149.943893 -14.600399 200.000000 1.000000 0.000000 0.000000 -0.566300 0.509000
deep_wall12.jpg
0 149.943893 -14.600399 200.000000 1.000000 0.000000 0.000000 -0.566300 0.509000
0 149.943893 -85.522400 200.000000 1.000000 0.000000 0.000000 -0.566300 0.111400
0 149.943893 -85.522400 100.000000 1.000000 0.000000 0.000000 0.018900 0.111400
deep_wall12.jpg
0 149.943893 -85.522400 200.000000 1.000000 0.000000 0.000000 -0.566300 0.111400
0 149.943893 -14.600399 200.000000 1.000000 0.000000 0.000000 -0.566300 0.509000
0 149.943893 -14.600399 262.769989 1.000000 0.000000 0.000000 -0.933600 0.509000
deep_wall12.jpg
0 149.943893 -14.600399 262.769989 1.000000 0.000000 0.000000 -0.933600 0.509000
0 149.943893 -85.522400 262.769989 1.000000 0.000000 0.000000 -0.933600 0.111400
0 149.943893 -85.522400 200.000000 1.000000 0.000000 0.000000 -0.566300 0.111400
deep_wall12.jpg
0 -150.056107 -0.012901 0.000000 -1.000000 0.000000 0.000000 0.604000 0.590800
0 -150.056107 -100.012901 0.000000 -1.000000 0.000000 0.000000 0.604000 0.030200
0 -150.056107 -85.522400 100.000000 -1.000000 0.000000 0.000000 0.018900 0.111400
deep_wall12.jpg
0 -150.056107 -85.522400 100.000000 -1.000000 0.000000 0.000000 0.018900 0.111400
0 -150.056107 -14.600502 100.000000 -1.000000 0.000000 0.000000 0.018900 0.509000
0 -150.056107 -0.012901 0.000000 -1.000000 0.000000 0.000000 0.604000 0.590800
deep_wall12.jpg
0 -150.056107 -14.600502 100.000000 -1.000000 0.000000 0.000000 0.018900 0.509000
0 -150.056107 -85.522400 100.000000 -1.000000 0.000000 0.000000 0.018900 0.111400
0 -150.056107 -85.522400 200.000000 -1.000000 0.000000 0.000000 -0.566300 0.111400
deep_wall12.jpg
0 -150.056107 -85.522400 200.000000 -1.000000 0.000000 0.000000 -0.566300 0.111400
0 -150.056107 -14.600502 200.000000 -1.000000 0.000000 0.000000 -0.566300 0.509000
0 -150.056107 -14.600502 100.000000 -1.000000 0.000000 0.000000 0.018900 0.509000
deep_wall12.jpg
0 -150.056107 -14.600502 200.000000 -1.000000 0.000000 0.000000 -0.566300 0.509000
0 -150.056107 -85.522400 200.000000 -1.000000 0.000000 0.000000 -0.566300 0.111400
0 -150.056107 -85.522400 262.769989 -1.000000 0.000000 0.000000 -0.933600 0.111400
deep_wall12.jpg
0 -150.056107 -85.522400 262.769989 -1.000000 0.000000 0.000000 -0.933600 0.111400
0 -150.056107 -14.600502 262.769989 -1.000000 0.000000 0.000000 -0.933600 0.509000
0 -150.056107 -14.600502 200.000000 -1.000000 0.000000 0.000000 -0.566300 0.509000
deep_wall12.jpg
0 -83.556099 -14.600502 262.769989 -1.000000 0.000000 0.000000 -0.933600 0.509000
0 -83.556099 -85.522400 262.769989 -1.000000 0.000000 0.000000 -0.933600 0.111400
0 -83.556099 -88.604401 291.606201 -1.000000 0.000000 0.000000 -1.102400 0.094200
deep_wall12.jpg
0 -83.556099 -88.604401 291.606201 -1.000000 0.000000 0.000000 -1.102400 0.094200
0 -83.556099 -11.708702 291.471985 -1.000000 0.000000 0.000000 -1.101600 0.525200
0 -83.556099 -14.600502 262.769989 -1.000000 0.000000 0.000000 -0.933600 0.509000
deep_wall12.jpg
0 83.443901 -85.522400 262.769989 1.000000 0.000000 0.000000 -0.933600 0.111400
0 83.443901 -14.600399 262.769989 1.000000 0.000000 0.000000 -0.933600 0.509000
0 83.443901 -11.708702 291.471985 1.000000 0.000000 0.000000 -1.101600 0.525200
deep_wall12.jpg
0 83.443901 -11.708702 291.471985 1.000000 0.000000 0.000000 -1.101600 0.525200
0 83.443901 -88.604401 291.606201 1.000000 0.000000 0.000000 -1.102400 0.094200
0 83.443901 -85.522400 262.769989 1.000000 0.000000 0.000000 -0.933600 0.111400
deep_wall12.jpg
0 -83.556099 -85.522400 262.769989 -1.000000 0.000000 0.000000 -0.933600 0.111400
0 -83.556099 -85.522400 200.000000 -1.000000 0.000000 0.000000 -0.566300 0.111400
0 -83.556099 -103.686501 215.384201 -1.000000 0.000000 0.000000 -0.656300 0.009600
deep_wall12.jpg
0 -83.556099 -103.686501 215.384201 -1.000000 0.000000 0.000000 -0.656300 0.009600
0 -83.556099 -88.604401 291.606201 -1.000000 0.000000 0.000000 -1.102400 0.094200
0 -83.556099 -85.522400 262.769989 -1.000000 0.000000 0.000000 -0.933600 0.111400
deep_wall12.jpg
0 83.443901 -85.522400 200.000000 1.000000 0.000000 0.000000 -0.566300 0.111400
0 83.443901 -85.522400 262.769989 1.000000 0.000000 0.000000 -0.933600 0.111400
0 83.443901 -88.604401 291.606201 1.000000 0.000000 0.000000 -1.102400 0.094200
deep_wall12.jpg
0 83.443901 -88.604401 291.606201 1.000000 0.000000 0.000000 -1.102400 0.094200
0 83.443901 -103.686501 215.384201 1.000000 0.000000 0.000000 -0.656300 0.009600
0 83.443901 -85.522400 200.000000 1.000000 0.000000 0.000000 -0.566300 0.111400
deep_wall12.jpg
0 83.443901 -14.600399 262.769989 1.000000 0.000000 0.000000 -0.933600 0.509000
0 83.443901 -14.600502 200.000000 1.000000 0.000000 0.000000 -0.566300 0.509000
0 83.443901 3.373299 215.250000 1.000000 0.000000 0.000000 -0.655600 0.609800
deep_wall12.jpg
0 83.443901 3.373299 215.250000 1.000000 0.000000 0.000000 -0.655600 0.609800
0 83.443901 -11.708702 291.471985 1.000000 0.000000 0.000000 -1.101600 0.525200
0 83.443901 -14.600399 262.769989 1.000000 0.000000 0.000000 -0.933600 0.509000
deep_wall12.jpg
0 149.943893 -85.522400 100.000000 0.000000 0.000000 1.000000 -0.169300 0.675500
0 83.443901 -62.716099 100.000000 0.000000 0.000000 1.000000 0.127400 0.739400
0 83.443901 -85.522400 100.000000 0.000000 0.000000 1.000000 0.127400 0.675500
deep_wall12.jpg
0 -83.556099 -62.716099 100.000000 0.000000 0.000000 1.000000 0.872600 0.739400
0 -150.056107 -85.522400 100.000000 0.000000 0.000000 1.000000 1.169300 0.675500
0 -83.556099 -85.522400 100.000000 0.000000 0.000000 1.000000 0.872600 0.675500
deep_wall12.jpg
0 83.443901 -62.716099 100.000000 0.000000 0.000000 1.000000 0.127400 0.739400
0 -83.556099 -62.716099 100.000000 0.000000 0.000000 1.000000 0.872600 0.739400
0 -83.556099 -85.522400 100.000000 0.000000 0.000000 1.000000 0.872600 0.675500
deep_wall12.jpg
0 83.443901 -62.716099 100.000000 0.000000 0.000000 1.000000 0.127400 0.739400
0 -83.556099 -85.522400 100.000000 0.000000 0.000000 1.000000 0.872600 0.675500
0 83.443901 -85.522400 100.000000 0.000000 0.000000 1.000000 0.127400 0.675500
deep_wall12.jpg
0 -83.556099 -62.716099 200.000000 -0.933152 -0.359482 0.000000 0.652300 0.574700
0 -83.556099 -62.716099 100.000000 -0.933152 -0.359482 0.000000 0.652300 0.270200
0 -65.804199 -108.800301 110.629898 -0.933152 -0.359482 0.000000 0.347700 0.302500
deep_wall12.jpg
0 -65.804199 -108.800301 110.629898 -0.933152 -0.359482 0.000000 0.347700 0.302500
0 -65.804199 -108.800301 189.370102 -0.933152 -0.359482 0.000000 0.347700 0.542400
0 -83.556099 -62.716099 200.000000 -0.933152 -0.359482 0.000000 0.652300 0.574700
deep_wall12.jpg
0 83.443901 -62.716099 100.000000 0.933152 -0.359482 0.000000 0.652300 0.270200
0 83.443901 -62.716099 200.000000 0.933152 -0.359482 0.000000 0.652300 0.574700
0 65.691902 -108.800301 189.370102 0.933152 -0.359482 0.000000 0.347700 0.542400
deep_wall12.jpg
0 65.691902 -108.800301 189.370102 0.933152 -0.359482 0.000000 0.347700 0.542400
0 65.691902 -108.800301 110.629898 0.933152 -0.359482 0.000000 0.347700 0.302500
0 83.443901 -62.716099 100.000000 0.933152 -0.359482 0.000000 0.652300 0.270200
deep_wall12.jpg
0 83.443901 -62.716099 200.000000 0.000000 -0.224801 0.974405 0.127400 0.409900
0 -83.556099 -62.716099 200.000000 0.000000 -0.224801 0.974405 0.872600 0.409900
0 -65.804199 -108.800301 189.370102 0.000000 -0.224801 0.974405 0.793400 0.315900
deep_wall12.jpg
0 -65.804199 -108.800301 189.370102 0.000000 -0.224801 0.974405 0.793400 0.315900
0 65.691902 -108.800301 189.370102 0.000000 -0.224801 0.974405 0.206600 0.315900
0 83.443901 -62.716099 200.000000 0.000000 -0.224801 0.974405 0.127400 0.409900
end
