version 1
nodes
0 "Box05" -1
end
skeleton
time 0
0 0.364572 0.018122 -0.000000 0.000000 0.000000 0.000000
end
triangles
wood01.jpg
0 -6.914300 -7.260700 155.017807 0.000000 0.000000 1.000000 0.562200 0.475200
0 7.643400 -7.260700 155.017807 0.000000 0.000000 1.000000 0.631200 0.475200
0 7.643400 7.297100 155.017700 0.000000 0.000000 1.000000 0.631200 0.544200
wood01.jpg
0 7.643400 7.297100 155.017700 0.000000 0.000000 1.000000 0.631200 0.544200
0 -6.914300 7.297100 155.017700 0.000000 0.000000 1.000000 0.562200 0.544200
0 -6.914300 -7.260700 155.017807 0.000000 0.000000 1.000000 0.562200 0.475200
wood01.jpg
0 -2.428700 -2.775200 27.796801 -0.682374 -0.600477 0.416884 0.545400 0.854400
0 3.157900 -2.775200 27.796801 0.600477 -0.682374 0.416884 0.545400 0.803000
0 3.157900 -2.775200 142.310196 0.447214 -0.894427 0.000000 0.890700 0.803000
wood01.jpg
0 3.157900 -2.775200 142.310196 0.447214 -0.894427 0.000000 0.890700 0.803000
0 -2.428700 -2.775200 142.310196 -0.894427 -0.447214 0.000000 0.890700 0.854400
0 -2.428700 -2.775200 27.796801 -0.682374 -0.600477 0.416884 0.545400 0.854400
wood01.jpg
0 3.157900 -2.775200 27.796801 0.600477 -0.682374 0.416884 0.545400 0.803000
0 3.157900 2.811400 27.796801 0.682374 0.600477 0.416884 0.545400 0.854400
0 3.157900 2.811400 142.310104 0.894427 0.447214 0.000000 0.890700 0.854400
wood01.jpg
0 3.157900 2.811400 142.310104 0.894427 0.447214 0.000000 0.890700 0.854400
0 3.157900 -2.775200 142.310196 0.447214 -0.894427 0.000000 0.890700 0.803000
0 3.157900 -2.775200 27.796801 0.600477 -0.682374 0.416884 0.545400 0.803000
wood01.jpg
0 3.157900 2.811400 27.796801 0.682374 0.600477 0.416884 0.545400 0.854400
0 -2.428700 2.811400 27.796801 -0.600477 0.682374 0.416884 0.545400 0.905800
0 -2.428700 2.811400 142.310104 -0.447214 0.894427 0.000000 0.890700 0.905800
wood01.jpg
0 -2.428700 2.811400 142.310104 -0.447214 0.894427 0.000000 0.890700 0.905800
0 3.157900 2.811400 142.310104 0.894427 0.447214 0.000000 0.890700 0.854400
0 3.157900 2.811400 27.796801 0.682374 0.600477 0.416884 0.545400 0.854400
wood01.jpg
0 -2.428700 2.811400 27.796801 -0.600477 0.682374 0.416884 0.545400 0.905800
0 -2.428700 -2.775200 27.796801 -0.682374 -0.600477 0.416884 0.545400 0.854400
0 -2.428700 -2.775200 142.310196 -0.894427 -0.447214 0.000000 0.890700 0.854400
wood01.jpg
0 -2.428700 -2.775200 142.310196 -0.894427 -0.447214 0.000000 0.890700 0.854400
0 -2.428700 2.811400 142.310104 -0.447214 0.894427 0.000000 0.890700 0.905800
0 -2.428700 2.811400 27.796801 -0.600477 0.682374 0.416884 0.545400 0.905800
wood01.jpg
0 -24.635401 -2.532900 5.116100 -0.832679 -0.481788 0.272993 0.066600 0.790700
0 -24.635401 2.569100 5.116100 -0.817381 0.334992 0.468689 0.066600 0.818000
0 -24.635401 2.569100 -0.087900 -0.802016 0.585611 0.117602 0.066600 0.818000
wood01.jpg
0 -24.635401 2.569100 -0.087900 -0.802016 0.585611 0.117602 0.066600 0.818000
0 -24.635401 -2.532900 -0.087900 -0.748848 -0.662742 0.000000 0.066600 0.790700
0 -24.635401 -2.532900 5.116100 -0.832679 -0.481788 0.272993 0.066600 0.790700
wood01.jpg
0 -2.186400 25.018101 5.116100 -0.481788 0.832679 0.272993 0.186400 0.937800
0 2.915600 25.018101 5.116100 0.334992 0.817381 0.468689 0.213600 0.937800
0 2.915600 25.018101 -0.087900 0.585611 0.802016 0.117602 0.213600 0.937800
wood01.jpg
0 2.915600 25.018101 -0.087900 0.585611 0.802016 0.117602 0.213600 0.937800
0 -2.186400 25.018101 -0.087900 -0.662742 0.748848 0.000000 0.186400 0.937800
0 -2.186400 25.018101 5.116100 -0.481788 0.832679 0.272993 0.186400 0.937800
wood01.jpg
0 25.364599 2.569100 5.116100 0.832679 0.481788 0.272993 0.333500 0.818000
0 25.364599 -2.532900 5.116100 0.817381 -0.334992 0.468689 0.333500 0.790700
0 25.364599 -2.532900 -0.087900 0.802016 -0.585611 0.117602 0.333500 0.790700
wood01.jpg
0 25.364599 -2.532900 -0.087900 0.802016 -0.585611 0.117602 0.333500 0.790700
0 25.364599 2.569100 -0.087900 0.748848 0.662742 0.000000 0.333500 0.818000
0 25.364599 2.569100 5.116100 0.832679 0.481788 0.272993 0.333500 0.818000
wood01.jpg
0 2.915600 -24.981899 5.116100 0.481788 -0.832679 0.272993 0.213600 0.670900
0 -2.186400 -24.981899 5.116100 -0.334992 -0.817381 0.468689 0.186400 0.670900
0 -2.186400 -24.981899 -0.087900 -0.585611 -0.802016 0.117602 0.186400 0.670900
wood01.jpg
0 -2.186400 -24.981899 -0.087900 -0.585611 -0.802016 0.117602 0.186400 0.670900
0 2.915600 -24.981899 -0.087900 0.662742 -0.748848 0.000000 0.213600 0.670900
0 2.915600 -24.981899 5.116100 0.481788 -0.832679 0.272993 0.213600 0.670900
wood01.jpg
0 3.157900 -2.775200 27.796801 0.600477 -0.682374 0.416884 0.213800 0.790500
0 -2.428700 -2.775200 27.796801 -0.682374 -0.600477 0.416884 0.186200 0.790500
0 -2.186400 -24.981899 5.116100 -0.334992 -0.817381 0.468689 0.186400 0.670900
wood01.jpg
0 -2.186400 -24.981899 5.116100 -0.334992 -0.817381 0.468689 0.186400 0.670900
0 2.915600 -24.981899 5.116100 0.481788 -0.832679 0.272993 0.213600 0.670900
0 3.157900 -2.775200 27.796801 0.600477 -0.682374 0.416884 0.213800 0.790500
wood01.jpg
0 -2.428700 2.811400 27.796801 -0.600477 0.682374 0.416884 0.186200 0.818200
0 3.157900 2.811400 27.796801 0.682374 0.600477 0.416884 0.213800 0.818200
0 2.915600 25.018101 5.116100 0.334992 0.817381 0.468689 0.213600 0.937800
wood01.jpg
0 2.915600 25.018101 5.116100 0.334992 0.817381 0.468689 0.213600 0.937800
0 -2.186400 25.018101 5.116100 -0.481788 0.832679 0.272993 0.186400 0.937800
0 -2.428700 2.811400 27.796801 -0.600477 0.682374 0.416884 0.186200 0.818200
wood01.jpg
0 -4.635400 5.018100 20.064600 -0.842884 0.471391 0.259495 0.184600 0.819800
0 -2.428700 2.811400 27.796801 -0.600477 0.682374 0.416884 0.186200 0.818200
0 -2.186400 25.018101 5.116100 -0.481788 0.832679 0.272993 0.186400 0.937800
wood01.jpg
0 -2.186400 25.018101 5.116100 -0.481788 0.832679 0.272993 0.186400 0.937800
0 -2.186400 25.018101 -0.087900 -0.662742 0.748848 0.000000 0.186400 0.937800
0 -4.635400 5.018100 20.064600 -0.842884 0.471391 0.259495 0.184600 0.819800
wood01.jpg
0 -2.428700 -2.775200 27.796801 -0.682374 -0.600477 0.416884 0.186200 0.790500
0 -4.635400 -4.981900 20.064600 -0.471391 -0.842884 0.259495 0.184600 0.788900
0 -2.186400 -24.981899 -0.087900 -0.585611 -0.802016 0.117602 0.186400 0.670900
wood01.jpg
0 -2.186400 -24.981899 -0.087900 -0.585611 -0.802016 0.117602 0.186400 0.670900
0 -2.186400 -24.981899 5.116100 -0.334992 -0.817381 0.468689 0.186400 0.670900
0 -2.428700 -2.775200 27.796801 -0.682374 -0.600477 0.416884 0.186200 0.790500
wood01.jpg
0 3.157900 2.811400 27.796801 0.682374 0.600477 0.416884 0.213800 0.818200
0 5.364600 5.018100 20.064600 0.471391 0.842884 0.259495 0.215500 0.819800
0 2.915600 25.018101 -0.087900 0.585611 0.802016 0.117602 0.213600 0.937800
wood01.jpg
0 2.915600 25.018101 -0.087900 0.585611 0.802016 0.117602 0.213600 0.937800
0 2.915600 25.018101 5.116100 0.334992 0.817381 0.468689 0.213600 0.937800
0 3.157900 2.811400 27.796801 0.682374 0.600477 0.416884 0.213800 0.818200
wood01.jpg
0 5.364600 -4.981900 20.064600 0.842884 -0.471391 0.259495 0.215500 0.788900
0 3.157900 -2.775200 27.796801 0.600477 -0.682374 0.416884 0.213800 0.790500
0 2.915600 -24.981899 5.116100 0.481788 -0.832679 0.272993 0.213600 0.670900
wood01.jpg
0 2.915600 -24.981899 5.116100 0.481788 -0.832679 0.272993 0.213600 0.670900
0 2.915600 -24.981899 -0.087900 0.662742 -0.748848 0.000000 0.213600 0.670900
0 5.364600 -4.981900 20.064600 0.842884 -0.471391 0.259495 0.215500 0.788900
wood01.jpg
0 3.157900 2.811400 27.796801 0.682374 0.600477 0.416884 0.213800 0.818200
0 3.157900 -2.775200 27.796801 0.600477 -0.682374 0.416884 0.213800 0.790500
0 25.364599 -2.532900 5.116100 0.817381 -0.334992 0.468689 0.333500 0.790700
wood01.jpg
0 25.364599 -2.532900 5.116100 0.817381 -0.334992 0.468689 0.333500 0.790700
0 25.364599 2.569100 5.116100 0.832679 0.481788 0.272993 0.333500 0.818000
0 3.157900 2.811400 27.796801 0.682374 0.600477 0.416884 0.213800 0.818200
wood01.jpg
0 -2.428700 -2.775200 27.796801 -0.682374 -0.600477 0.416884 0.186200 0.790500
0 -2.428700 2.811400 27.796801 -0.600477 0.682374 0.416884 0.186200 0.818200
0 -24.635401 2.569100 5.116100 -0.817381 0.334992 0.468689 0.066600 0.818000
wood01.jpg
0 -24.635401 2.569100 5.116100 -0.817381 0.334992 0.468689 0.066600 0.818000
0 -24.635401 -2.532900 5.116100 -0.832679 -0.481788 0.272993 0.066600 0.790700
0 -2.428700 -2.775200 27.796801 -0.682374 -0.600477 0.416884 0.186200 0.790500
wood01.jpg
0 -2.428700 2.811400 27.796801 -0.600477 0.682374 0.416884 0.186200 0.818200
0 -4.635400 5.018100 20.064600 -0.842884 0.471391 0.259495 0.184600 0.819800
0 -24.635401 2.569100 -0.087900 -0.802016 0.585611 0.117602 0.066600 0.818000
wood01.jpg
0 -24.635401 2.569100 -0.087900 -0.802016 0.585611 0.117602 0.066600 0.818000
0 -24.635401 2.569100 5.116100 -0.817381 0.334992 0.468689 0.066600 0.818000
0 -2.428700 2.811400 27.796801 -0.600477 0.682374 0.416884 0.186200 0.818200
wood01.jpg
0 -4.635400 -4.981900 20.064600 -0.471391 -0.842884 0.259495 0.184600 0.788900
0 -2.428700 -2.775200 27.796801 -0.682374 -0.600477 0.416884 0.186200 0.790500
0 -24.635401 -2.532900 5.116100 -0.832679 -0.481788 0.272993 0.066600 0.790700
wood01.jpg
0 -24.635401 -2.532900 5.116100 -0.832679 -0.481788 0.272993 0.066600 0.790700
0 -24.635401 -2.532900 -0.087900 -0.748848 -0.662742 0.000000 0.066600 0.790700
0 -4.635400 -4.981900 20.064600 -0.471391 -0.842884 0.259495 0.184600 0.788900
wood01.jpg
0 3.157900 -2.775200 27.796801 0.600477 -0.682374 0.416884 0.213800 0.790500
0 5.364600 -4.981900 20.064600 0.842884 -0.471391 0.259495 0.215500 0.788900
0 25.364599 -2.532900 -0.087900 0.802016 -0.585611 0.117602 0.333500 0.790700
wood01.jpg
0 25.364599 -2.532900 -0.087900 0.802016 -0.585611 0.117602 0.333500 0.790700
0 25.364599 -2.532900 5.116100 0.817381 -0.334992 0.468689 0.333500 0.790700
0 3.157900 -2.775200 27.796801 0.600477 -0.682374 0.416884 0.213800 0.790500
wood01.jpg
0 5.364600 5.018100 20.064600 0.471391 0.842884 0.259495 0.215500 0.819800
0 3.157900 2.811400 27.796801 0.682374 0.600477 0.416884 0.213800 0.818200
0 25.364599 2.569100 5.116100 0.832679 0.481788 0.272993 0.333500 0.818000
wood01.jpg
0 25.364599 2.569100 5.116100 0.832679 0.481788 0.272993 0.333500 0.818000
0 25.364599 2.569100 -0.087900 0.748848 0.662742 0.000000 0.333500 0.818000
0 5.364600 5.018100 20.064600 0.471391 0.842884 0.259495 0.215500 0.819800
wood01.jpg
0 -2.428700 -2.775200 142.310196 0.000000 -0.889780 -0.456390 0.890700 0.854400
0 3.157900 -2.775200 142.310196 0.000000 -0.889780 -0.456390 0.890700 0.803000
0 10.336600 -9.953900 156.306107 0.000000 -0.889780 -0.456390 0.933700 0.767400
wood01.jpg
0 10.336600 -9.953900 156.306107 0.000000 -0.889780 -0.456390 0.933700 0.767400
0 -9.607500 -9.953900 156.306107 0.000000 -0.889780 -0.456390 0.933700 0.854400
0 -2.428700 -2.775200 142.310196 0.000000 -0.889780 -0.456390 0.890700 0.854400
wood01.jpg
0 3.157900 -2.775200 142.310196 0.889780 0.000000 -0.456390 0.890700 0.803000
0 3.157900 2.811400 142.310104 0.889780 0.000000 -0.456390 0.890700 0.854400
0 10.336600 9.990200 156.306000 0.889780 0.000000 -0.456390 0.933700 0.854400
wood01.jpg
0 10.336600 9.990200 156.306000 0.889780 0.000000 -0.456390 0.933700 0.854400
0 10.336600 -9.953900 156.306107 0.889780 0.000000 -0.456390 0.933700 0.767400
0 3.157900 -2.775200 142.310196 0.889780 0.000000 -0.456390 0.890700 0.803000
wood01.jpg
0 3.157900 2.811400 142.310104 0.000000 0.889780 -0.456390 0.890700 0.854400
0 -2.428700 2.811400 142.310104 0.000000 0.889780 -0.456390 0.890700 0.905800
0 -9.607500 9.990200 156.306000 0.000000 0.889780 -0.456390 0.933700 0.941400
wood01.jpg
0 -9.607500 9.990200 156.306000 0.000000 0.889780 -0.456390 0.933700 0.941400
0 10.336600 9.990200 156.306000 0.000000 0.889780 -0.456390 0.933700 0.854400
0 3.157900 2.811400 142.310104 0.000000 0.889780 -0.456390 0.890700 0.854400
wood01.jpg
0 -2.428700 2.811400 142.310104 -0.889780 0.000000 -0.456390 0.890700 0.905800
0 -2.428700 -2.775200 142.310196 -0.889780 0.000000 -0.456390 0.890700 0.854400
0 -9.607500 -9.953900 156.306107 -0.889780 0.000000 -0.456390 0.933700 0.854400
wood01.jpg
0 -9.607500 -9.953900 156.306107 -0.889780 0.000000 -0.456390 0.933700 0.854400
0 -9.607500 9.990200 156.306000 -0.889780 0.000000 -0.456390 0.933700 0.941400
0 -2.428700 2.811400 142.310104 -0.889780 0.000000 -0.456390 0.890700 0.905800
wood01.jpg
0 -9.607500 -9.953900 156.306107 0.000000 -1.000000 0.000000 0.933700 0.854400
0 10.336600 -9.953900 156.306107 0.000000 -1.000000 0.000000 0.933700 0.767400
0 10.336600 -9.953900 165.240707 0.000000 -1.000000 0.000000 0.957100 0.767400
wood01.jpg
0 10.336600 -9.953900 165.240707 0.000000 -1.000000 0.000000 0.957100 0.767400
0 -9.607500 -9.953900 165.240707 0.000000 -1.000000 0.000000 0.957100 0.854400
0 -9.607500 -9.953900 156.306107 0.000000 -1.000000 0.000000 0.933700 0.854400
wood01.jpg
0 10.336600 -9.953900 156.306107 1.000000 0.000000 0.000000 0.933700 0.767400
0 10.336600 9.990200 156.306000 1.000000 0.000000 0.000000 0.933700 0.854400
0 10.336600 9.990300 165.240601 1.000000 0.000000 0.000000 0.957100 0.854400
wood01.jpg
0 10.336600 9.990300 165.240601 1.000000 0.000000 0.000000 0.957100 0.854400
0 10.336600 -9.953900 165.240707 1.000000 0.000000 0.000000 0.957100 0.767400
0 10.336600 -9.953900 156.306107 1.000000 0.000000 0.000000 0.933700 0.767400
wood01.jpg
0 10.336600 9.990200 156.306000 0.000000 1.000000 0.000000 0.933700 0.854400
0 -9.607500 9.990200 156.306000 0.000000 1.000000 0.000000 0.933700 0.941400
0 -9.607500 9.990300 165.240601 0.000000 1.000000 0.000000 0.957100 0.941400
wood01.jpg
0 -9.607500 9.990300 165.240601 0.000000 1.000000 0.000000 0.957100 0.941400
0 10.336600 9.990300 165.240601 0.000000 1.000000 0.000000 0.957100 0.854400
0 10.336600 9.990200 156.306000 0.000000 1.000000 0.000000 0.933700 0.854400
wood01.jpg
0 -9.607500 9.990200 156.306000 -1.000000 0.000000 0.000000 0.933700 0.941400
0 -9.607500 -9.953900 156.306107 -1.000000 0.000000 0.000000 0.933700 0.854400
0 -9.607500 -9.953900 165.240707 -1.000000 0.000000 0.000000 0.957100 0.854400
wood01.jpg
0 -9.607500 -9.953900 165.240707 -1.000000 0.000000 0.000000 0.957100 0.854400
0 -9.607500 9.990300 165.240601 -1.000000 0.000000 0.000000 0.957100 0.941400
0 -9.607500 9.990200 156.306000 -1.000000 0.000000 0.000000 0.933700 0.941400
wood01.jpg
0 -9.607500 -9.953900 165.240707 0.000000 0.966994 0.254798 0.957100 0.854400
0 10.336600 -9.953900 165.240707 0.000000 0.966994 0.254798 0.957100 0.767400
0 7.643400 -7.260700 155.017807 0.000000 0.966994 0.254798 0.929700 0.790900
wood01.jpg
0 7.643400 -7.260700 155.017807 0.000000 0.966994 0.254798 0.929700 0.790900
0 -6.914300 -7.260700 155.017807 0.000000 0.966994 0.254798 0.929700 0.854400
0 -9.607500 -9.953900 165.240707 0.000000 0.966994 0.254798 0.957100 0.854400
wood01.jpg
0 10.336600 -9.953900 165.240707 -0.966994 0.000000 0.254798 0.957100 0.767400
0 10.336600 9.990300 165.240601 -0.966994 0.000000 0.254798 0.957100 0.854400
0 7.643400 7.297100 155.017700 -0.966994 0.000000 0.254798 0.929700 0.854400
wood01.jpg
0 7.643400 7.297100 155.017700 -0.966994 0.000000 0.254798 0.929700 0.854400
0 7.643400 -7.260700 155.017807 -0.966994 0.000000 0.254798 0.929700 0.790900
0 10.336600 -9.953900 165.240707 -0.966994 0.000000 0.254798 0.957100 0.767400
wood01.jpg
0 10.336600 9.990300 165.240601 0.000000 -0.966994 0.254798 0.957100 0.854400
0 -9.607500 9.990300 165.240601 0.000000 -0.966994 0.254798 0.957100 0.941400
0 -6.914300 7.297100 155.017700 0.000000 -0.966994 0.254798 0.929700 0.917900
wood01.jpg
0 -6.914300 7.297100 155.017700 0.000000 -0.966994 0.254798 0.929700 0.917900
0 7.643400 7.297100 155.017700 0.000000 -0.966994 0.254798 0.929700 0.854400
0 10.336600 9.990300 165.240601 0.000000 -0.966994 0.254798 0.957100 0.854400
wood01.jpg
0 -9.607500 9.990300 165.240601 0.966994 0.000000 0.254798 0.957100 0.941400
0 -9.607500 -9.953900 165.240707 0.966994 0.000000 0.254798 0.957100 0.854400
0 -6.914300 -7.260700 155.017807 0.966994 0.000000 0.254798 0.929700 0.854400
wood01.jpg
0 -6.914300 -7.260700 155.017807 0.966994 0.000000 0.254798 0.929700 0.854400
0 -6.914300 7.297100 155.017700 0.966994 0.000000 0.254798 0.929700 0.917900
0 -9.607500 9.990300 165.240601 0.966994 0.000000 0.254798 0.957100 0.941400
fire0a.jpg
0 -6.914300 -7.260700 155.614899 0.000000 -0.819284 0.573389 0.197300 0.272200
0 7.643400 -7.260700 155.614899 0.000000 -0.819284 0.573389 0.802700 0.272200
0 0.364500 0.018300 166.014893 0.000000 -0.819284 0.573389 0.500000 0.574900
fire0a.jpg
0 7.643400 -7.260700 155.614899 0.819284 0.000000 0.573389 0.802700 0.272200
0 7.643400 7.297100 155.614899 0.819284 0.000000 0.573389 0.802700 0.877600
0 0.364500 0.018300 166.014893 0.819284 0.000000 0.573389 0.500000 0.574900
fire0a.jpg
0 7.643400 7.297100 155.614899 0.000000 0.819284 0.573389 0.802700 0.877600
0 -6.914300 7.297100 155.614899 0.000000 0.819284 0.573389 0.197300 0.877600
0 0.364500 0.018300 166.014893 0.000000 0.819284 0.573389 0.500000 0.574900
fire0a.jpg
0 -6.914300 7.297100 155.614899 -0.819284 0.000000 0.573389 0.197300 0.877600
0 -6.914300 -7.260700 155.614899 -0.819284 0.000000 0.573389 0.197300 0.272200
0 0.364500 0.018300 166.014893 -0.819284 0.000000 0.573389 0.500000 0.574900
end
