version 1
nodes
0 "Box03" -1
end
skeleton
time 0
0 0.030996 -20.025742 204.399506 0.436332 0.000000 0.000000
end
triangles
wood01.jpg
0 -2.079500 -7.805999 178.194199 -0.706574 -0.624077 -0.333588 0.299700 0.358300
0 0.031000 -9.718799 177.302200 -0.706574 -0.624077 -0.333588 0.301500 0.381200
0 0.031000 -30.704399 216.557404 -0.706574 -0.624077 -0.333588 0.102500 0.397300
wood01.jpg
0 0.031000 -30.704399 216.557404 -0.706574 -0.624077 -0.333588 0.102500 0.397300
0 -4.509000 -26.589701 218.476105 -0.706574 -0.624077 -0.333588 0.100800 0.348000
0 -2.079500 -7.805999 178.194199 -0.706574 -0.624077 -0.333588 0.299700 0.358300
wood01.jpg
0 0.031000 -9.718799 177.302200 0.706574 -0.624077 -0.333588 0.301500 0.381200
0 2.141500 -7.805999 178.194199 0.706574 -0.624077 -0.333588 0.299700 0.358300
0 4.571000 -26.589701 218.476105 0.706574 -0.624077 -0.333588 0.100800 0.348000
wood01.jpg
0 4.571000 -26.589701 218.476105 0.706574 -0.624077 -0.333588 0.100800 0.348000
0 0.031000 -30.704399 216.557404 0.706574 -0.624077 -0.333588 0.102500 0.397300
0 0.031000 -9.718799 177.302200 0.706574 -0.624077 -0.333588 0.301500 0.381200
wood01.jpg
0 2.141500 -7.805999 178.194199 0.706592 0.656692 0.263597 0.299700 0.358300
0 0.031000 -5.893200 179.086105 0.706592 0.656692 0.263597 0.304400 0.335400
0 0.031000 -22.475100 220.394806 0.706592 0.656692 0.263597 0.101300 0.298700
wood01.jpg
0 0.031000 -22.475100 220.394806 0.706592 0.656692 0.263597 0.101300 0.298700
0 4.571000 -26.589701 218.476105 0.706592 0.656692 0.263597 0.100800 0.348000
0 2.141500 -7.805999 178.194199 0.706592 0.656692 0.263597 0.299700 0.358300
wood01.jpg
0 0.031000 -5.893200 179.086105 -0.706592 0.656692 0.263597 0.304400 0.335400
0 -2.079500 -7.805999 178.194199 -0.706592 0.656692 0.263597 0.299700 0.358300
0 -4.509000 -26.589701 218.476105 -0.706592 0.656692 0.263597 0.100800 0.348000
wood01.jpg
0 -4.509000 -26.589701 218.476105 -0.706592 0.656692 0.263597 0.100800 0.348000
0 0.031000 -22.475100 220.394806 -0.706592 0.656692 0.263597 0.101300 0.298700
0 0.031000 -5.893200 179.086105 -0.706592 0.656692 0.263597 0.304400 0.335400
wood01.jpg
0 -4.509000 -26.589701 218.476105 -0.934175 -0.208594 -0.289492 0.100800 0.348000
0 0.031000 -30.704399 216.557404 0.311404 -0.773009 -0.552707 0.102500 0.397300
0 0.031000 -35.601200 223.406097 -0.207293 -0.965469 -0.157795 0.081000 0.414000
wood01.jpg
0 0.031000 -35.601200 223.406097 -0.207293 -0.965469 -0.157795 0.081000 0.414000
0 -6.052600 -30.087601 225.977097 -0.941694 0.075900 0.327798 0.083600 0.347900
0 -4.509000 -26.589701 218.476105 -0.934175 -0.208594 -0.289492 0.100800 0.348000
wood01.jpg
0 0.031000 -30.704399 216.557404 0.311404 -0.773009 -0.552707 0.102500 0.397300
0 4.571000 -26.589701 218.476105 0.934193 0.355797 -0.026300 0.100800 0.348000
0 6.114600 -30.087601 225.977097 0.941688 -0.299896 0.152598 0.083600 0.347900
wood01.jpg
0 6.114600 -30.087601 225.977097 0.941688 -0.299896 0.152598 0.083600 0.347900
0 0.031000 -35.601200 223.406097 -0.207293 -0.965469 -0.157795 0.081000 0.414000
0 0.031000 -30.704399 216.557404 0.311404 -0.773009 -0.552707 0.102500 0.397300
wood01.jpg
0 4.571000 -26.589701 218.476105 0.934193 0.355797 -0.026300 0.100800 0.348000
0 0.031000 -22.475100 220.394806 -0.311393 0.920280 0.236895 0.101300 0.298700
0 0.031000 -24.573900 228.548203 0.207306 0.741420 0.638217 0.082800 0.281900
wood01.jpg
0 0.031000 -24.573900 228.548203 0.207306 0.741420 0.638217 0.082800 0.281900
0 6.114600 -30.087601 225.977097 0.941688 -0.299896 0.152598 0.083600 0.347900
0 4.571000 -26.589701 218.476105 0.934193 0.355797 -0.026300 0.100800 0.348000
wood01.jpg
0 0.031000 -22.475100 220.394806 -0.311393 0.920280 0.236895 0.101300 0.298700
0 -4.509000 -26.589701 218.476105 -0.934175 -0.208594 -0.289492 0.100800 0.348000
0 -6.052600 -30.087601 225.977097 -0.941694 0.075900 0.327798 0.083600 0.347900
wood01.jpg
0 -6.052600 -30.087601 225.977097 -0.941694 0.075900 0.327798 0.083600 0.347900
0 0.031000 -24.573900 228.548203 0.207306 0.741420 0.638217 0.082800 0.281900
0 0.031000 -22.475100 220.394806 -0.311393 0.920280 0.236895 0.101300 0.298700
wood01.jpg
0 -6.052600 -30.087601 225.977097 -0.941694 0.075900 0.327798 0.083600 0.347900
0 0.031000 -35.601200 223.406097 -0.207293 -0.965469 -0.157795 0.081000 0.414000
0 0.031000 -32.245499 230.604904 0.000000 -0.422606 0.906313 0.061100 0.347800
wood01.jpg
0 0.031000 -35.601200 223.406097 -0.207293 -0.965469 -0.157795 0.081000 0.414000
0 6.114600 -30.087601 225.977097 0.941688 -0.299896 0.152598 0.083600 0.347900
0 0.031000 -32.245499 230.604904 0.000000 -0.422606 0.906313 0.061100 0.347800
wood01.jpg
0 6.114600 -30.087601 225.977097 0.941688 -0.299896 0.152598 0.083600 0.347900
0 0.031000 -24.573900 228.548203 0.207306 0.741420 0.638217 0.082800 0.281900
0 0.031000 -32.245499 230.604904 0.000000 -0.422606 0.906313 0.061100 0.347800
wood01.jpg
0 0.031000 -24.573900 228.548203 0.207306 0.741420 0.638217 0.082800 0.281900
0 -6.052600 -30.087601 225.977097 -0.941694 0.075900 0.327798 0.083600 0.347900
0 0.031000 -32.245499 230.604904 0.000000 -0.422606 0.906313 0.061100 0.347800
wood01.jpg
0 17.448999 1.263700 202.783295 0.871217 -0.413608 0.264405 0.894900 0.061100
0 6.743800 -16.979200 209.524902 0.404114 0.239008 0.882931 0.914700 0.115200
0 7.514000 -19.666000 202.783295 0.330983 -0.862956 0.381781 0.894800 0.115300
wood01.jpg
0 17.448999 1.263700 202.783295 0.871217 -0.413608 0.264405 0.894900 0.061100
0 15.718400 1.927299 209.524902 -0.697766 0.331184 0.635169 0.914500 0.061000
0 6.743800 -16.979200 209.524902 0.404114 0.239008 0.882931 0.914700 0.115200
wood01.jpg
0 15.718400 1.927299 209.524902 -0.697766 0.331184 0.635169 0.914500 0.061000
0 5.973600 -14.292301 202.783295 -0.661993 0.667193 0.341496 0.895000 0.115100
0 6.743800 -16.979200 209.524902 0.404114 0.239008 0.882931 0.914700 0.115200
wood01.jpg
0 15.718400 1.927299 209.524902 -0.697766 0.331184 0.635169 0.914500 0.061000
0 13.987800 2.590900 202.783295 -0.871217 0.413608 0.264405 0.895000 0.061000
0 5.973600 -14.292301 202.783295 -0.661993 0.667193 0.341496 0.895000 0.115100
wood01.jpg
0 7.514000 -19.666000 202.783295 0.330983 -0.862956 0.381781 0.894800 0.115300
0 -7.650500 -16.979200 209.524902 0.404114 -0.239008 0.882931 0.915000 0.173600
0 -8.420600 -19.666000 202.783295 -0.661993 -0.667193 0.341496 0.895200 0.173600
wood01.jpg
0 7.514000 -19.666000 202.783295 0.330983 -0.862956 0.381781 0.894800 0.115300
0 6.743800 -16.979200 209.524902 0.404114 0.239008 0.882931 0.914700 0.115200
0 -7.650500 -16.979200 209.524902 0.404114 -0.239008 0.882931 0.915000 0.173600
wood01.jpg
0 6.743800 -16.979200 209.524902 0.404114 0.239008 0.882931 0.914700 0.115200
0 -6.880300 -14.292301 202.783295 0.330983 0.862956 0.381781 0.895000 0.173500
0 -7.650500 -16.979200 209.524902 0.404114 -0.239008 0.882931 0.915000 0.173600
wood01.jpg
0 6.743800 -16.979200 209.524902 0.404114 0.239008 0.882931 0.914700 0.115200
0 5.973600 -14.292301 202.783295 -0.661993 0.667193 0.341496 0.895000 0.115100
0 -6.880300 -14.292301 202.783295 0.330983 0.862956 0.381781 0.895000 0.173500
wood01.jpg
0 -8.420600 -19.666000 202.783295 -0.661993 -0.667193 0.341496 0.895200 0.173600
0 -16.625099 1.927299 209.524902 -0.697766 -0.331184 0.635169 0.915100 0.228700
0 -18.355700 1.263700 202.783295 -0.871217 -0.413608 0.264405 0.895400 0.228900
wood01.jpg
0 -8.420600 -19.666000 202.783295 -0.661993 -0.667193 0.341496 0.895200 0.173600
0 -7.650500 -16.979200 209.524902 0.404114 -0.239008 0.882931 0.915000 0.173600
0 -16.625099 1.927299 209.524902 -0.697766 -0.331184 0.635169 0.915100 0.228700
wood01.jpg
0 -7.650500 -16.979200 209.524902 0.404114 -0.239008 0.882931 0.915000 0.173600
0 -14.894500 2.590900 202.783295 0.871217 0.413608 0.264405 0.895100 0.228600
0 -16.625099 1.927299 209.524902 -0.697766 -0.331184 0.635169 0.915100 0.228700
wood01.jpg
0 -7.650500 -16.979200 209.524902 0.404114 -0.239008 0.882931 0.915000 0.173600
0 -6.880300 -14.292301 202.783295 0.330983 0.862956 0.381781 0.895000 0.173500
0 -14.894500 2.590900 202.783295 0.871217 0.413608 0.264405 0.895100 0.228600
fire0a.jpg
0 -5.280800 -26.152599 217.538498 -0.934175 -0.208594 -0.289492 0.165200 0.500300
0 0.031000 -30.966700 215.293594 0.311404 -0.773009 -0.552707 0.499900 0.197000
0 0.031000 -36.695999 223.306595 -0.207293 -0.965469 -0.157795 0.499900 0.199500
fire0a.jpg
0 0.031000 -36.695999 223.306595 -0.207293 -0.965469 -0.157795 0.499900 0.199500
0 -7.086900 -30.245001 226.314697 -0.941694 0.075900 0.327798 0.166900 0.501900
0 -5.280800 -26.152599 217.538498 -0.934175 -0.208594 -0.289492 0.165200 0.500300
fire0a.jpg
0 0.031000 -30.966700 215.293594 0.311404 -0.773009 -0.552707 0.499900 0.197000
0 5.342800 -26.152599 217.538498 0.934193 0.355797 -0.026300 0.833400 0.501900
0 7.148900 -30.245001 226.314697 0.941688 -0.299896 0.152598 0.832900 0.501900
fire0a.jpg
0 7.148900 -30.245001 226.314697 0.941688 -0.299896 0.152598 0.832900 0.501900
0 0.031000 -36.695999 223.306595 -0.207293 -0.965469 -0.157795 0.499900 0.199500
0 0.031000 -30.966700 215.293594 0.311404 -0.773009 -0.552707 0.499900 0.197000
fire0a.jpg
0 5.342800 -26.152599 217.538498 0.934193 0.355797 -0.026300 0.833400 0.501900
0 0.031000 -21.338400 219.783401 -0.311393 0.920280 0.236895 0.499900 0.830700
0 0.031000 -23.794001 229.322906 0.207306 0.741420 0.638217 0.499900 0.834900
fire0a.jpg
0 0.031000 -23.794001 229.322906 0.207306 0.741420 0.638217 0.499900 0.834900
0 7.148900 -30.245001 226.314697 0.941688 -0.299896 0.152598 0.832900 0.501900
0 5.342800 -26.152599 217.538498 0.934193 0.355797 -0.026300 0.833400 0.501900
fire0a.jpg
0 0.031000 -21.338400 219.783401 -0.311393 0.920280 0.236895 0.499900 0.830700
0 -5.280800 -26.152599 217.538498 -0.934175 -0.208594 -0.289492 0.165200 0.500300
0 -7.086900 -30.245001 226.314697 -0.941694 0.075900 0.327798 0.166900 0.501900
fire0a.jpg
0 -7.086900 -30.245001 226.314697 -0.941694 0.075900 0.327798 0.166900 0.501900
0 0.031000 -23.794001 229.322906 0.207306 0.741420 0.638217 0.499900 0.834900
0 0.031000 -21.338400 219.783401 -0.311393 0.920280 0.236895 0.499900 0.830700
fire0a.jpg
0 -7.086900 -30.245001 226.314697 -0.941694 0.075900 0.327798 0.166900 0.501900
0 0.031000 -36.695999 223.306595 -0.207293 -0.965469 -0.157795 0.499900 0.199500
0 0.031000 -32.769798 231.729202 0.000000 -0.422606 0.906313 0.499900 0.482600
fire0a.jpg
0 0.031000 -36.695999 223.306595 -0.207293 -0.965469 -0.157795 0.499900 0.199500
0 7.148900 -30.245001 226.314697 0.941688 -0.299896 0.152598 0.832900 0.501900
0 0.031000 -32.769798 231.729202 0.000000 -0.422606 0.906313 0.499900 0.482600
fire0a.jpg
0 7.148900 -30.245001 226.314697 0.941688 -0.299896 0.152598 0.832900 0.501900
0 0.031000 -23.794001 229.322906 0.207306 0.741420 0.638217 0.499900 0.834900
0 0.031000 -32.769798 231.729202 0.000000 -0.422606 0.906313 0.499900 0.482600
fire0a.jpg
0 0.031000 -23.794001 229.322906 0.207306 0.741420 0.638217 0.499900 0.834900
0 -7.086900 -30.245001 226.314697 -0.941694 0.075900 0.327798 0.166900 0.501900
0 0.031000 -32.769798 231.729202 0.000000 -0.422606 0.906313 0.499900 0.482600
end
